<?xml version="1.0" encoding="utf-8"?>
<!-- Generator: Adobe Illustrator 19.0.1, SVG Export Plug-In . SVG Version: 6.00 Build 0)  -->
<svg version="1.1" id="Layer_1" xmlns="http://www.w3.org/2000/svg" xmlns:xlink="http://www.w3.org/1999/xlink" x="0px" y="0px"
	 viewBox="0 0 196.2 127.3" style="enable-background:new 0 0 196.2 127.3;" xml:space="preserve">
<style type="text/css">
	.st0{fill:#FFFFFF;}
	.st1{fill:#003E54;}
	.st2{fill:#2D9EB2;}
	.st3{fill:#00A651;}
	.st4{fill:#2D9EB2;stroke:#FFFFFF;stroke-width:3;stroke-miterlimit:10;}
	.st5{fill:#2D9EB2;stroke:#FFFFFF;stroke-width:2;stroke-miterlimit:10;}
	.st6{clip-path:url(#XMLID_905_);}
	.st7{fill:#2D9EB2;stroke:#003E54;stroke-width:2;stroke-miterlimit:10;}
	.st8{fill:none;stroke:#000000;stroke-width:8;stroke-linecap:round;stroke-miterlimit:10;}
	.st9{fill:none;stroke:#000000;stroke-width:8;stroke-linecap:round;stroke-linejoin:round;stroke-miterlimit:10;}
	.st10{fill:none;stroke:#000000;stroke-width:11.7833;stroke-linecap:round;stroke-miterlimit:10;}
	.st11{fill:none;stroke:#000000;stroke-width:11.7833;stroke-linecap:round;stroke-linejoin:round;stroke-miterlimit:10;}
	.st12{fill:none;stroke:#2D9EB2;stroke-width:11.7833;stroke-linecap:round;stroke-miterlimit:10;}
	.st13{fill:none;stroke:#2D9EB2;stroke-width:10;stroke-linecap:round;stroke-linejoin:round;stroke-miterlimit:10;}
	.st14{fill:#C7C6C5;}
</style>
<g id="XMLID_647_">
	<path id="XMLID_648_" class="st2" d="M196.2,55.4v66.8c0,2.7-2.1,4.8-4.8,4.8h-38.2c-2.7,0-4.8-2.1-4.8-4.8V55.4
		c0-2.7,2.1-4.8,4.8-4.8h38.2C194,50.6,196.2,52.7,196.2,55.4z M188.2,63.4h-31.8v44.5h31.8V63.4z M177.1,117.4
		c0-2.7-2.1-4.8-4.8-4.8s-4.8,2.1-4.8,4.8s2.1,4.8,4.8,4.8S177.1,120.1,177.1,117.4z"/>
</g>
<g id="XMLID_637_">
	<path id="XMLID_644_" class="st2" d="M127.3,8v87.5c0,4.4-3.5,8-8,8H79.6v7.7l22.2,11.2c1,0.3,1.6,1.3,1.6,2.4
		c0,1.5-1.2,2.7-2.7,2.7H26.5c-1.2,0-2.4-0.9-2.7-2.1c-0.1-1.2,0.3-2.4,1.5-2.9l22.4-11.2v-7.7H8c-4.4,0-8-3.5-8-8V8
		c0-4.4,3.5-8,8-8h111.4C123.8,0,127.3,3.5,127.3,8z M111.4,15.9H15.9v71.6h95.5V15.9z"/>
</g>
</svg>
