<?xml version="1.0" encoding="utf-8"?>
<!-- Generator: Adobe Illustrator 19.0.1, SVG Export Plug-In . SVG Version: 6.00 Build 0)  -->
<svg version="1.1" id="Layer_1" xmlns="http://www.w3.org/2000/svg" xmlns:xlink="http://www.w3.org/1999/xlink" x="0px" y="0px"
	 viewBox="0 0 131.2 131.2" style="enable-background:new 0 0 131.2 131.2;" xml:space="preserve">
<style type="text/css">
	.st0{fill:#FFFFFF;}
	.st1{fill:#003E54;}
	.st2{fill:#2D9EB2;}
	.st3{fill:#00A651;}
	.st4{fill:#2D9EB2;stroke:#FFFFFF;stroke-width:3;stroke-miterlimit:10;}
	.st5{fill:#2D9EB2;stroke:#FFFFFF;stroke-width:2;stroke-miterlimit:10;}
	.st6{clip-path:url(#XMLID_160_);}
	.st7{fill:#2D9EB2;stroke:#003E54;stroke-width:2;stroke-miterlimit:10;}
	.st8{fill:none;stroke:#000000;stroke-width:8;stroke-linecap:round;stroke-miterlimit:10;}
	.st9{fill:none;stroke:#000000;stroke-width:8;stroke-linecap:round;stroke-linejoin:round;stroke-miterlimit:10;}
	.st10{fill:none;stroke:#000000;stroke-width:11.7833;stroke-linecap:round;stroke-miterlimit:10;}
	.st11{fill:none;stroke:#000000;stroke-width:11.7833;stroke-linecap:round;stroke-linejoin:round;stroke-miterlimit:10;}
	.st12{fill:none;stroke:#2D9EB2;stroke-width:11.7833;stroke-linecap:round;stroke-miterlimit:10;}
	.st13{fill:none;stroke:#2D9EB2;stroke-width:10;stroke-linecap:round;stroke-linejoin:round;stroke-miterlimit:10;}
</style>
<g id="XMLID_83_">
	<defs>
		<circle id="XMLID_76_" cx="65.6" cy="65.6" r="65.6"/>
	</defs>
	<clipPath id="XMLID_160_">
		<use xlink:href="#XMLID_76_"  style="overflow:visible;"/>
	</clipPath>
	<g id="XMLID_82_" class="st6">
		<g id="XMLID_87_">
			<path id="XMLID_88_" class="st2" d="M46,98.3c-1,0-4.1-4.5-4.1-5.4c-0.2-0.5-0.5-1.2-0.5-1.8c0.4,0-2.3-3.8-2.3-3.8
				c-0.7-0.4-0.1-6.8,0.8-6.8c0.1-0.4,0.3-0.7,0.6-0.9c0.3,1.1,1.5-0.5,0.5-0.5c0-0.7-0.1-2.2,0-2.6c0-5.7-3.8,4.5-4.7-2.6
				c0.1-0.6-1.2-1.9-1.6-2.2c0.8-2.1-9.1-5.2-9.7-5.2c-0.4-0.8-2.2-0.5-2.6-1.3c-2.1,0-0.7-6-3.1-6c0-0.7-1.5-1.8-1.9-1.8
				c0-0.1-0.6-1.5-0.9-1.5c0-6.5-0.9,10.3-0.9,2.5c-0.8-1.7-1.7-3.5-2.6-5.2c0-1.3-0.7-1.9-2.2-1.9c-1-1.4-2-2.8-2.8-4.3
				c0-1.1-0.6-2.5-0.3-3.7c0-1.9,1.6-3.9,0-5.4c-11,32.2-0.5,75.7,34.8,88.9c-0.1-2.1,0-6.8,0.7-6.8c0-0.3,0.3-1.7,0.5-1.7
				c0-0.9,0.1-1.9,0-2.9c-0.2-0.5,2.4-9.4,1.9-9.4C45.8,103,46.5,101.2,46,98.3z"/>
			<path id="XMLID_125_" class="st2" d="M120.1,97.6c-0.3,1.9-0.6,3.7-0.9,5.6c8.8-12.4,13-28.1,11.7-43.3c-0.8,0-1.8-0.2-2.1-0.3
				c-2.2,0-4-2.1-6.1-1.4c0.6-1.9-3-3.4-1.1,1.9c0.8,0,0.7-0.1,0.9-1.3c0.1,0.1,0.1,0.1,0.2,0.1c0-0.1,0.3,2,0.3,2.2
				c1.1,0,2.1-0.6,2.6-1.8c0.2,0.6,1.8,3,1.6,1.7c1.2,0.3,1,1.8,0.1,2.4c-0.3,1-0.8,1.9-1.3,2.8c0,0.3-3.2,1.7-3,2.3
				c-1.7,0.8-3.3,1.5-5.1,2.2c-2,0-1.6-2.4-2.6-2.4c0.9-4.6-5.6-9.6-6.7-13.3c0.8,0.1,1.9,0.2,1.9-0.8c-0.5,0-0.6-0.6-0.1-0.6
				c0.4-1.3,0.7-2.6,0.9-4c-0.7,0-0.9,0.1-1.5,0.3c0,0-4.2-0.1-4.4-0.5c-2-1.8-3.4-5.3-3.4,0.3c-0.8-1.1-1.6-2.1-2.5-3.1
				c0-0.6,0.3-1.6-0.3-1.8c0,0.4-5.1-5.4-4.1-1.4c1.1-0.2,1,1.8,2.4,1.6c0,0.3,0,0.6,0.1,0.9c0.8-0.2,0.9,0.4,1.1,0.6
				c-0.4,0.4-1.1,1-1.7,1.5c0-0.8-0.2-1.9-0.7-1.9c-0.5-1-1.9-0.7-2.5-1.6c-0.5,0-0.7-1.5-1.5-1.6c-0.2,0.2-0.7,0.4-1,0.4
				c-0.4,0.8-2.2,0.3-2.8,0.2c0.8,0.5-5.8,8.6-5.8,6.3c-1.2-0.4-2.3-1.3-2.3-2.6c-0.1,0,0.2-3.4,0.4-3.9c0.2,0.1,0.3,0.2,0.4,0.4
				c0.7-0.3,2.5,0.2,2.5-0.6c0.7,0,0.9,0.3,0.6,0.9c0.7,0.1,1.8,0.3,1.8-0.6c-0.4,0-0.4,0-0.4-0.4c1.3-1.3-1-2.6-1-3.2
				c-2.7-0.9,1.8,0.1,1.1-1.2c0.1,0,0.1-0.1,0.1-0.1c0.2,0.2,1.2,1.2,1.2,0.2c0.3,0,1.3-0.6,0.4-0.6c0.1-0.5,0.1-0.9,0.1-1.2
				c1.4,0.7,0.6-0.5,1.3-1c0,0.9,0.7-0.4,1.2-0.4c0.5-0.8,1.7-0.2,2-1.1c-0.7-0.2-0.5-1.9-0.5-2.5c1.5-0.8,2.2-0.5,2,1.1
				c1.2,0.6,0.9-0.4,0.9-1c-0.4,0-0.9-1.4-1-2c-0.3,0-0.8,0.2-1,0.4c-1.2,0-2-0.4-2.9-0.4c-0.1-0.1-1.2-1.4-1.1-1.4
				c-0.6-1.1,0.7-0.8,0.9-0.9c0-1.1,4.4-0.9,4.6-2.6c-1.5,0,1.5-2.5,1.5-2.5c0.2-0.1,9-4.2,9-2.6c0.6,0-9.9-11.2-23.9-14.5
				C65.1,1.8,45.5,5.9,45.6,5.9c0,0.7-23.8,11.5-23.5,12.3c0.1,0,0.8,1,0.7,1.5c0.6,0,1.4-0.4,1.6,0.3c-0.3,0-0.6,0-0.9-0.1
				c0.3,2.1-3.9-0.5-2.9,1.2c1.4,0,3.5,1.1,5.2,1.1c0-0.1,1.5-0.8,0.4-0.8c0.1-0.6-0.1-0.7-0.8-0.8c0.1-0.6,1.5-0.2,2.2-0.2
				c0-1.2,0.7-2,1.8-2.4c0.5,0.2,0.9,0.5,1.1,1.1c0.4,0.3,2.4,3.3,2.4,1.2c0.7,0.2,1.1,1.6,1.1,2.3c1.3-0.2,1.4-1.2,1.4-2.2
				c0.3,0-0.1-0.5-0.1-0.6c0.5-0.2,1.1,0.5,1.1-0.2c0.2,0,0.2,0.2,0.2,0.4c3.8,0.7,0.1,1.6,0.1,3.1c-1.4,1.1,1.7,1.6,2.2,2.3
				c-0.3,0-1.4-0.1-1.4-0.2c-0.7,0-2.4,0.7-3,0.2c0.8,0,1.1-0.9,1.3-1.9c-0.5,0.4-3.5,1.4-3.6,1.7c-0.2,0.1-1.7,0.8-1.7,0.5
				C28.6,26,29,27.5,29,29.1c0.7,0.4,2.1,1.6,2,2.3c1.6,0.3,2.1,0.4,3.5,0.6c0.8,0.5,1.6,1,2.5,1.3c0-1.2,1.4,1,1.5,1.4
				c-0.2,0,0.3,1.2,0.4,1.6c-0.2-0.1-0.3,0-0.2,0.2c0.7,0.2,1.8,0.2,1.9-0.5c-0.7,0-0.4-0.7-0.4-1.2c-0.7-0.4-0.6-1.3,0.1-1.5
				c0,0.6,2.2-0.4,1-0.9c0.7-1.5,0.4-2.4-0.9-2.9c0.8-0.2,0.2-1.8,0.2-2.6c1.2,0,2.4,0,3.7-0.2c1.4,0.6,0.3,1.2,1.7,0.8
				c0,0.3,1.6,1.9,1.8,1.9c0,0.1,0,0.5,0.3,0.5c0,0.3-0.2-0.2-0.2,0.4c0.2,0,1.3,0.2,1.3-0.2c0.7,0,1.2-0.9,1.2-1.5
				c0.2-0.1,3.3,5,3.3,4.4c0.3,0.3,0.5,0.2,0.5,1c0.3,0,1-1.3,1-0.1c0.3,0,1.2,0.7,1.3,1.2c-0.8,0,0,0.8-0.4,0.8
				c0,0.7-1.7,0.2-2,0.1c-1,4.4-7.7-2.8-8.5,4.8c1.5-0.8,3-1.5,4.6-2.2c0,0.2,0.2,0.1,0.2,0.3c-2.2,0,1,2.7,1.4,2.7
				c-0.6,0.4-1.3,0.8-1.9,1.2c-1.7,0.2-0.9,0.1-0.8-0.3c0.1,0.2,0.7,0,0.7,0c-0.1-0.5-0.3-0.4-0.1-0.8c-0.9,0-1.4,0.4-2.2,0.4
				c-0.1,0.3-0.8,0.9-1.1,0.9c-0.2,0.7-0.7,1.9-1.3,2.3c0-0.2-1.5,1-1.4,1c-0.3,0.6-0.7,0.5-0.9,1.4c-0.1,0.1-0.5,1.5-0.5,1.7
				c-0.7,0.4-0.9,2.3-2,2.3c-0.7,1.4-1.9,1.2-1.9,3c1,1.6,1,3.1,0.1,4.5C38.5,59,37.8,58,37.9,58c0-2-0.9-2.9-2.7-2.5
				c-0.3-0.5-2-0.6-2.7-0.6c0.1,0.4,0.4,0.5,0.4,1c-2,0.8-6-2.6-6,2.8c-0.2,0-0.2,3.2,0,3.2c0,0.9,0.8,1.6,0.8,2.3
				c1.1,0.7,2.1,1.5,3.1,2.3c0-0.1,0.7-0.4,0.8-0.9c-0.8-0.2,0-1.3,0.5-1.5c0.8-0.2,1.5-0.5,2.3-0.8c0-0.9,0.8,0.1,0.2,0.4
				c-0.6,0-0.5,1-0.9,1c-0.6,1.2-0.8,2.4-0.3,3.7c0.9,0.2,1.7,0,2.6,0c0-0.2,0-0.3-0.1-0.4c1.2,0,0.1,2.4,0.9,2.4
				c0,0.9,0.4,1.6,0.4,2.2c0.6,0.4,0.9,0.9,0.8,1.6c0.7,0.1,2.3,0.3,2.3-0.6c1.1,0,1.2,0.7,1.1,1.5c2.2,0,0.8-2.2,1.7-2.2
				c0.1-0.4,0.2-0.4,0.4-0.2c0.6-0.3,1.1-0.7,1.7-1c0.3,0.2,0.3,0.1,0.5,0.3c0.6,0,1.2-0.3,1.7-0.7c1.2,0.2,4.4,3.1,5.9,2.7
				c0.1,0.2,0.4,0.2,0.6,0.7c0,0.9,3.1,2.1,3.5,2.1c0.2-0.8,0.9,0.1,1.2,0.1c0.2,0.3,0.3,0.1,0.4,0.4c1,0.8,0.3,0.5,0.8,1.4
				c0.5,0.3,0.6,1.4,0.8,2c-0.4,0-0.1,1.5-0.1,1.6c-0.5,0,1.2,0.9,1.2-0.2c0.7,0.1,1.1,0.9,1.6,0.9c-0.3,0.6,0.8,1.1,0.8,0.1
				c1,0.1,0.7,1.6,0.6,2.1c1-0.4,2-0.6,3-0.8c2,0.7,5.7,4.7,2.7,7c0,0.2-1.6,1.9-1.6,1.9c0,0.2,0,2.4-0.1,2.4c0,0.4-0.3,2.8-0.6,2.8
				c0,1.2-0.8,1.4-1.1,2.6c-0.7,0.5-2.4,1.3-2.7,1.8c-0.5,0-0.9,0.4-1.4,0.4c-0.1,0.1-1.2,1.2-1,1.2c0.3,1.5,0,2.8-0.9,3.9
				c-2.1,0-2.5,3.3-3.7,4.1c0,0.3-1.4,0.4-1.4,1.2c0.1,0,0,1.5,0,1.6c-1.2,0.6-2.5,1.1-3.8,1.5c0,0.2-0.1,0.9-0.3,0.9
				c0,1.1-0.8,0.1-1.4,0.6c0.2,0,0.6,1.1,0.4,1.1c-0.6,0.9-1.2,1.8-1.9,2.7c0,0.6-0.3,1.2-0.3,1.8c0.1,0,0,0.3,0.1,0.5
				c0.3-0.1,0.3-0.4,0.4-0.4c0-0.5,0.9,0.3,0.3,0.3c-0.4,0.7-0.9,0.7-1.2,1.6c-0.8,0-1.5,1.9-0.8,1.9c0,0.2,0.1,0.4,0.2,0.6
				c25.9,7.3,54.3-2.3,70.5-23.9c-2.3-0.2-1.4-6.9-1-8.1c0.4,0.3,0.8,0.9,1.1,0c-0.8-0.2-0.6-0.4-0.3-1.1c0.5,0.3,2,0.9,2-0.3
				c-1.2,0,0.2-2.1,0.2-0.8c1.1,0,0.4-1.4,0.9-1.8c0,0.6,0.3,2.1,0.6,2.3c-0.4,0.9-0.8,1.8-1,2.8C120.4,97.6,120.3,97.6,120.1,97.6z
				 M36.3,62c-0.1,0.2-0.2,0.3,0.1-0.3c0.1,0,0.2,0.1,0.3,0.1c0.1,0.5,0.4,0.3,0.8,0.1C37.4,62.5,36.3,62.7,36.3,62z M40.5,65.4
				c0.5,0.1,0.8,0.3,0.8,0.6C40.9,66,40.2,66.2,40.5,65.4z M41.4,66c0.1-0.5,0.5-1.1,0.6-0.1C41.8,66,41.6,66,41.4,66z M43,64.1
				C43.1,64.1,43.1,64.1,43,64.1L43,64.1z M42.7,64.1c-1.4-0.7-2.8-1.3-4.2-2.1c0.5,0,1.1,0.2,1.4-0.3c1.4,0.1,1.5,1.1,2.6,1.1
				C42.7,63.2,43.8,64,42.7,64.1z M45.6,71c0-0.1,0.1-0.3,0.1-0.4c0.1,0,0.2,0.1,0.3,0.1C45.9,71,45.9,71,45.6,71z M45.1,65.6
				c-0.2,0.3-1.6,0.3-1.8-0.1c0.5,0,1,0.2,1.5,0c0-0.3-0.2-0.5-0.4-0.9c0.6,0,1.2,0.4,2,0.4c0-0.5-0.2,0.1,0-0.5
				c0.3,0.1,1.1,0.9,1.2,1.2C46.4,65.6,46.4,65.6,45.1,65.6z M48.7,65.8c0-0.1,0-0.2,0-0.3c0.1,0,0.3,0.1,0.3,0.2
				C48.9,65.7,48.8,65.8,48.7,65.8z M49.2,65.4c0.2,0,0.5,0.1,0.5,0.3C49.4,65.7,49,66,49.2,65.4z M52.3,41.5
				c0.1-0.5,0.3-0.4,0.9-0.8C53.2,41.3,52.9,41.5,52.3,41.5z M95.6,48.7c0.3,0.1,0.5,0.1,0.6,0.1c-0.1,0.2-0.2,0.3-0.3,0.4
				c-0.3-0.2-0.8-0.4-1.2-0.4C94.9,48.1,95.3,48.6,95.6,48.7z M96.7,48.8c-0.1,0.6-0.3,0.6-0.7,0.5C96.2,49.2,96.4,49,96.7,48.8z
				 M92.6,44c0.3,0.1,0.3,0.2,0.3,0.2c0,0.2-0.4,0.6-0.5,1c-0.3-0.3-0.2-0.4-0.4-1C92.4,44.4,92.6,44.4,92.6,44z M92,45.8
				c0,0,0.1,0,0.2,0c0.2,0.8,0.3,0.5,0.3-0.2c0.4,0,0.6,2-0.6,1.6C91.8,46.7,91.6,45.9,92,45.8z M84.4,30.2c0.7,0,0,0.9-0.1,0.5
				c0,0.3,0,0.6,0,0.9c0.8,0,0.8-0.5,1.4-0.6c-0.3,2,1.8,3.1,1.5,4.8c0.6,0,0.5,0,0.5-0.5c0.6,0.2,0.5,0.6,0,0.6c-0.5,1-1.8,1-2.8,1
				c-0.9-0.3-1.3-1-1.1-1.9c0.1,0,2.2,0.1,1-0.3c-0.1-1.2-0.3-1.5-1.4-1.5C83.4,29,83.6,33.2,84.4,30.2z M83.5,37.2
				c0.2,0,0.4,0,0.5,0c0,0.2-0.4,0.4-0.6,0.2c0,0.1,0,0.2-0.1-0.1C83.5,37.4,83.6,37.3,83.5,37.2z M81.5,33.9c0,0,0.1,0,0.1-0.1
				c-0.7-0.8-0.6-0.9,0.3-0.4c1.7,0.8,1.2,1.7-1.6,2.8c-0.6-0.6,0-0.9,0.1-1.5C79.5,34.4,81,34.1,81.5,33.9z M72.7,25.5
				c-0.7,0-1.2-0.3-2-0.4c0-0.3,1.2-1.2,0.1-1.2c0,0,1.2-0.5,1.4-0.5c0,0.2-0.2,0.1,0.1,0.2c0.1,0.2,0,0.8,0,0.8
				c1.2-0.4,2.4-0.4,3.5,0c0.7,0.3,0.6-0.2,1.1-0.4C76.9,26,72.7,25.1,72.7,25.5z M120.2,93.5c0-0.4,0.1-0.3,0.3-0.5
				C120.6,93.6,120.7,93.7,120.2,93.5z M121.3,75.7c-0.8,0-0.4,0.8-0.4,1.1c-1.3,0.8-5.8,8.5-7,8.5c0,0.5,0.3,8.8,0.5,8.8
				c0,1.2-0.8,1.9-0.8,2.8c-0.4,0.2-0.9,0.4-1.1,0.8c-0.7,0-1,1.4-1.3,1.4c0,1.5-0.4,2.6-0.4,4.3c0.1,0-0.9,2.4-0.9,2.6
				c-1.6,1.8-3.1,3.7-4.4,5.7c-0.4,0-3.7,0.6-3.7,0.9c-0.7,0-2.5,0.5-2.9-0.1c0-0.7-0.4-1.5-0.4-2.5c-1.1,0-1.8-5.8-2.5-5.8
				c0-0.6-2.2-8.9-2.2-8.9c0.9-2.9,1-5.8,0.3-8.8c-0.2,0-0.8-1-0.9-1.3c-0.9-0.6-1.2-1.7-1.2-2.8c0.6-0.6,0.8-3.1,0.6-3.9
				c-2.5-1.2-6.8-0.9-9.4-0.9c0,0.8-3.2-0.1-3.5-0.8c-0.8,0-2.4-1.7-2.4-2.5c-0.9-0.6-2.3-3.5-2.3-4.4c-0.8-0.4-0.5-1.8-0.1-1.8
				c1-3.8,0.7-6.6,2.9-10.2c0.6-0.3,0.9-1.2,1.5-1.7c0.3-0.3,0.3-0.5,0-0.8c0.1,0,0.8-1.7,0.8-2c0.8-1.2,0.2-0.6,1.1-0.5
				c0.3-0.3,0.8-1.2,1.3-1.2C83,51.2,83.5,51,84,51c0,0.6,1.8-0.2,1.9-0.2c0.3-0.6,2.2-1.3,2.7-1.3c0-0.7,3.8,0.2,4.4,0.1
				c0-0.1,0-0.2,0-0.3c0.8,0.2,2.3,3.5,2.2,4.2c0.6,0,1.2-0.1,1.6,0c0,1.2,5.2,1.3,5.2-0.3c0.6,0,1.2,0.4,1.1,1.2
				c0.7,0.1,5,0.2,4.7,1.1c0.6,0,0.8,1.1,1.4,1.1c0.9,1.6,1.7,3.2,2.4,4.9c0.3,0.9,1.3,2.9,2.3,3.4c0.4,1.2,0.9,2.3,1.4,3.4
				c0,4.4,4.1,4.9,7.1,3.9C122.2,73.5,121.1,74.3,121.3,75.7z"/>
			<path id="XMLID_150_" class="st2" d="M36.3,61.7c0,0.1-0.1,0.2-0.1,0.3C36.3,61.9,36.4,61.7,36.3,61.7z"/>
			<path id="XMLID_151_" class="st2" d="M92.1,45.7c-0.1,0-0.1,0-0.2,0C91.7,45.9,92.3,46.4,92.1,45.7z"/>
			<path id="XMLID_152_" class="st2" d="M88.4,43.5C88.4,43.5,88.4,43.5,88.4,43.5C88.4,43.4,88.4,43.4,88.4,43.5z"/>
			<path id="XMLID_166_" class="st2" d="M88.5,43.4c0,0,0.1,0,0.1,0C88.6,43.4,88.5,43.4,88.5,43.4z"/>
			<path id="XMLID_167_" class="st2" d="M35.7,23.4c0,0,0,0.1,0,0.1C35.7,23.4,35.8,23.4,35.7,23.4z"/>
			<path id="XMLID_168_" class="st2" d="M121.3,75.7C121.1,74.3,120.5,75.7,121.3,75.7L121.3,75.7z"/>
			<path id="XMLID_169_" class="st2" d="M95.6,48.7C95.3,48.6,96.4,49,95.6,48.7L95.6,48.7z"/>
			<path id="XMLID_170_" class="st2" d="M92.8,44.2c0-0.1-0.1-0.2-0.3-0.2C92.6,44.2,92.8,44.2,92.8,44.2z"/>
			<path id="XMLID_171_" class="st2" d="M84.3,30.8c0-0.2,0-0.3,0.1-0.5C84.3,30.5,84.3,30.7,84.3,30.8z"/>
			<path id="XMLID_172_" class="st2" d="M83.4,37.3C83.4,37.4,83.5,37.4,83.4,37.3C83.5,37.4,83.5,37.3,83.4,37.3z"/>
			<path id="XMLID_173_" class="st2" d="M45.6,71C45.9,71,45.6,70.8,45.6,71L45.6,71z"/>
			<path id="XMLID_174_" class="st2" d="M48.7,65.8C48.8,65.8,48.7,65.7,48.7,65.8L48.7,65.8z"/>
		</g>
		<g id="XMLID_3_">
			<path id="XMLID_86_" class="st0" d="M73,26.5h0.7v-0.1c1.3,0,4.2-0.1,4.2-2.5v-1.6L76.5,23c-0.2,0.1-0.4,0.2-0.5,0.3
				c-0.9-0.3-1.9-0.4-2.8-0.3v-0.7h-1c-0.2,0-0.4,0-1.8,0.6L66,24.9h3.6c0,0.1,0,0.1,0,0.2V26l0.9,0.1c0.3,0,0.5,0.1,0.8,0.2
				c0.1,0,0.3,0.1,0.5,0.1c0.2,0.1,0.4,0.2,0.7,0.2C72.7,26.6,72.9,26.6,73,26.5z"/>
			<path id="XMLID_175_" class="st0" d="M106.4,112.2l-0.3,0.4h-0.5c-0.3,0-1.4,0.2-2.3,0.4c-0.1,0.1-0.3,0.2-0.4,0.3v0.2h-0.3
				c-11.2,7.6-26,16-37.1,16c-3.8,0-10.7-0.7-15.2-1.2c24.5,5.9,50.7-3.3,66.2-23.2c-0.1-0.1-0.2-0.2-0.3-0.3
				c-0.2-0.3-0.3-0.6-0.4-1c-1.8,1.4-4.4,3.4-7.5,5.8C107.7,110.3,107,111.2,106.4,112.2z"/>
			<path id="XMLID_176_" class="st0" d="M122.5,95.3c-0.3,0.6-0.6,1.3-0.7,2c6.1-10.9,9.1-23.9,8.2-36.4c-0.3,0-0.6-0.1-0.8-0.1
				c-0.3,5.7-1.8,22-6.6,33.4l0.5,0.2L122.5,95.3z"/>
			<path id="XMLID_179_" class="st0" d="M-11.2-28.7v168.5h163.9V-28.7H-11.2z M129.2,58.9C129.2,58.9,129.2,58.9,129.2,58.9
				C129.2,58.9,129.2,58.9,129.2,58.9z M129.2,58.7C129.2,58.7,129.2,58.7,129.2,58.7C129.2,58.7,129.2,58.7,129.2,58.7z
				 M124.5,59.2c-0.2,0.3-0.4,0.5-0.7,0.7c0-0.3-0.1-0.6-0.1-0.8C124,59.1,124.2,59.1,124.5,59.2z M109.2,53.9c-0.1,0-0.3,0-0.4,0
				l-1.5-0.2l0,0.1c-0.8-0.2-1.9-0.4-3.5-0.5c-0.1-0.2-0.2-0.4-0.3-0.5c-0.2-0.2-0.3-0.3-0.5-0.4v-2.8c0-0.7,0-1.1,0-1.5
				c0.1,0.1,0.2,0.2,0.3,0.3c0.4,0.5,0.9,1.1,1.4,1.6l0,0c1.1,0.9,5.1,0.8,5.4,0.8c-0.1,0.7-0.3,1.3-0.5,2c0,0-0.1,0.1-0.1,0.1
				c-0.2,0.2-0.4,0.6-0.4,0.9C109.2,53.8,109.2,53.8,109.2,53.9z M97,52.5c-0.3-0.1-0.7-0.1-1-0.1c-0.2-0.8-0.6-1.8-1.2-2.6
				c0.1,0,0.2,0.1,0.2,0.1c0,0,0,0,0.1,0.1c0.3,0.3,0.6,0.4,1,0.3c0.3,0.1,0.6,0,1-0.2c0.3-0.2,0.5-0.5,0.6-0.8c0,0,0,0,0,0l0.4-0.3
				v-0.5c0-0.1,0-0.1,0-0.2c0.3-0.3,0.6-0.6,0.9-0.8c0,0,0,0,0,0h0.1c0.7,0.9,1.5,1.8,2.1,2.7l1.5,2.1c-0.2-0.1-0.5-0.1-0.8-0.1h-1
				V53c-0.5,0.4-2.4,0.5-3.2,0.1v-0.5L97,52.5z M90.8,46.8c0,0.1,0,0.2,0,0.3v0.7l0.7,0.2c0.2,0,0.3,0.1,0.5,0.1v0.3
				c-0.1,0-0.2,0-0.3,0c-2.1-0.3-3.1-0.4-3.7,0.1c-0.8,0.2-2,0.7-2.7,1.3c0,0,0,0,0,0c0.7-0.6,1.5-1.6,2.6-3c0.8-1,1.3-1.8,1.5-2.3
				c0.5,0.1,1.1,0.1,1.6,0c0,0.1,0.1,0.2,0.1,0.3c0,0.1,0,0.2,0.1,0.2c0,0,0,0-0.1,0.1C90.6,45.7,90.7,46.4,90.8,46.8z M93.3,47.6
				c0.5-0.5,0.6-1.3,0.4-2c0.4,0.2,0.7,0.4,1,0.5c0.4,0.1,0.6,0.2,0.7,0.4l0.3,0.6h0.2c0,0.1,0.1,0.3,0.1,0.5
				c-0.1,0.1-0.1,0.1-0.2,0.2c0,0,0,0,0,0c-0.2-0.1-0.7-0.4-1.3-0.2c-0.3,0.1-0.6,0.4-0.8,1l0,0.1c-0.2-0.1-0.3-0.2-0.5-0.2
				l-0.7-0.2C92.8,48,93.1,47.9,93.3,47.6z M113.9,23.2c0.1,0.1,0.2,0.2,0.3,0.3C114.2,23.4,114.1,23.3,113.9,23.2z M114.5,23.6
				c0.1,0.1,0.3,0.2,0.4,0.3C114.8,23.8,114.6,23.7,114.5,23.6z M113.2,22.6c0.1,0.1,0.3,0.2,0.4,0.3
				C113.4,22.8,113.3,22.7,113.2,22.6z M112.4,22.1c0.1,0.1,0.2,0.2,0.4,0.3C112.7,22.2,112.6,22.1,112.4,22.1z M108.6,19.3
				C108.6,19.3,108.6,19.3,108.6,19.3L108.6,19.3L108.6,19.3C108.6,19.3,108.6,19.3,108.6,19.3C108.6,19.3,108.6,19.3,108.6,19.3
				C108.6,19.3,108.6,19.3,108.6,19.3z M109.1,19.6c0.2,0.1,0.3,0.2,0.5,0.4C109.4,19.9,109.3,19.8,109.1,19.6z M110.2,20.4
				c0.2,0.2,0.5,0.3,0.7,0.5C110.6,20.7,110.4,20.6,110.2,20.4z M111.4,21.3c0.1,0.1,0.2,0.2,0.4,0.3
				C111.6,21.4,111.5,21.4,111.4,21.3z M107.1,19.1c0,0,0.1,0,0.1,0C107.1,19.1,107.1,19.1,107.1,19.1z M104.9,16.7
				c0.6,0.4,1.1,0.8,1.7,1.1C106,17.5,105.4,17.1,104.9,16.7z M106.9,18.1c0.6,0.4,1.1,0.8,1.7,1.2C108,18.9,107.5,18.5,106.9,18.1z
				 M102.7,15.3c0.7,0.4,1.3,0.9,2,1.3C104,16.2,103.4,15.7,102.7,15.3z M104.5,18.7c0,0-0.1,0-0.1,0
				C104.5,18.7,104.5,18.7,104.5,18.7z M115.5,24.5C115.5,24.5,115.5,24.5,115.5,24.5C115.5,24.5,115.5,24.5,115.5,24.5z
				 M115.5,24.4c0,0-0.1-0.1-0.2-0.2C115.4,24.3,115.4,24.4,115.5,24.4z M115,24c0.1,0.1,0.2,0.1,0.3,0.2
				C115.2,24.2,115.1,24.1,115,24z M108.6,19.3c0.9,0.1,1.7,0.2,2.4,0.3C110.3,19.5,109.5,19.4,108.6,19.3z M71.9,1.6
				c-0.7-0.1-1.4-0.2-2.2-0.2c-0.7,0-1.4-0.1-2.2,0c0.7,0,1.5,0,2.2,0C70.4,1.4,71.1,1.5,71.9,1.6z M102.3,15.1
				c-0.6-0.4-1.1-0.7-1.7-1.1C101.2,14.4,101.8,14.7,102.3,15.1z M100.1,13.7c-0.7-0.4-1.4-0.8-2.1-1.3
				C98.7,12.8,99.4,13.3,100.1,13.7z M97.9,12.4c-0.7-0.4-1.5-0.9-2.2-1.3C96.4,11.5,97.2,11.9,97.9,12.4z M95.1,10.7
				c-0.6-0.3-1.2-0.7-1.8-1C93.9,10.1,94.5,10.4,95.1,10.7z M92.7,9.4c-0.8-0.4-1.5-0.8-2.3-1.2C91.1,8.6,91.9,9,92.7,9.4z
				 M90.1,8.1c-0.7-0.4-1.4-0.7-2.1-1C88.7,7.4,89.4,7.7,90.1,8.1z M87.3,6.7c-0.6-0.3-1.2-0.6-1.8-0.8C86.1,6.1,86.7,6.4,87.3,6.7z
				 M84.9,5.6c-0.8-0.3-1.6-0.7-2.4-1C83.3,4.9,84.1,5.2,84.9,5.6z M82,4.4c-0.6-0.2-1.3-0.5-1.9-0.7C80.7,3.9,81.4,4.2,82,4.4z
				 M79.4,3.5c-0.7-0.2-1.3-0.4-1.9-0.6C78.1,3.1,78.8,3.3,79.4,3.5z M77.1,2.7c-0.8-0.2-1.5-0.4-2.3-0.6
				C75.5,2.3,76.3,2.5,77.1,2.7z M74.2,2c-0.6-0.1-1.1-0.2-1.7-0.3C73.1,1.8,73.6,1.9,74.2,2z M66.9,1.3c-0.6,0-1.1,0.1-1.7,0.1
				C65.8,1.4,66.4,1.4,66.9,1.3z M22.9,16.9c0,0.1,0,0.2,0,0.3l0,0l0,0c0,0,0,0,0,0c0,0,0,0,0,0C22.9,17.1,22.9,17,22.9,16.9z
				 M36.7,26.3c0.2,0,0.4-0.1,0.6-0.1c0.4,0.1,0.8,0.2,1.6,0.2h0.9l0,0.5c0,0.3,0.1,0.6,0.1,0.9c0,0.2,0.1,0.5,0.1,0.7l-2.8,0.7
				l3,1.1c0.3,0.1,0.5,0.2,0.5,0.4c0,0.1,0.1,0.4-0.2,1.2l-0.1,0.2l-0.2,0.1c-0.5,0.1-1,0.5-1.2,1c-0.4-0.7-1-1.4-1.8-1.4
				c-0.1,0-0.1,0-0.2,0c-0.1,0-0.2,0-0.3,0.1c-0.5-0.3-1.1-0.6-1.6-0.9L35,31l-0.2,0c-0.8-0.1-1.3-0.2-2-0.3
				c-0.3-0.1-0.6-0.1-0.9-0.2c-0.4-0.8-1.3-1.5-1.8-1.9c0-0.1,0-0.2,0-0.3c-0.1-1.1,0-1.3,0.2-1.4c0.5,0.1,1-0.2,2-0.5l0.6-0.2
				l0.1-0.1c0.1,0,0.2-0.1,0.4-0.2l0.5,0.5C34.5,26.8,35.7,26.6,36.7,26.3z M35.3,61.6c-0.1,0.2-0.1,0.3-0.1,0.5
				c-0.2-0.2-0.5-0.2-0.8-0.2c-0.1,0-0.6,0.1-0.8,0.6c-0.6,0.2-1.1,0.4-1.7,0.5l-0.1,0c-0.5,0.2-1.3,0.9-1.5,1.6
				c-0.5-0.4-1.1-0.8-1.7-1.2c-0.1-0.3-0.2-0.6-0.4-0.8c-0.2-0.3-0.3-0.6-0.3-0.8v-1h-0.1c0-0.4,0-0.8,0-1.2H28v-1
				c0-1.4,0.3-1.8,0.5-2c0.3-0.3,1.2-0.1,2,0.1c1,0.2,2,0.4,3,0l0.7-0.3l0-0.5c0.2,0,0.3,0.1,0.4,0.1l0.3,0.5l0.8-0.2
				c0.5-0.1,0.9-0.1,1.1,0.1c0.2,0.2,0.3,0.6,0.3,1.2c-0.1,0.5,0.2,1,0.7,1.8l0.5,0.9l-1,0.5l-1.5-0.5l-0.2,0.4l-1.6-0.1L35.3,61.6z
				 M47.2,38.9c0.1-0.2,0.3-0.4,0.4-0.5c0.3-0.2,0.7-0.3,1.1-0.3c0.1,0,0.2,0,0.3,0C48.4,38.3,47.8,38.6,47.2,38.9z M22.9,17.3
				c0,0.1,0,0.2,0,0.2C22.9,17.4,22.9,17.4,22.9,17.3z M23.4,16.9c-0.2,0.1-0.4,0.2-0.5,0.3C23.1,17.1,23.2,17,23.4,16.9z M21,18.3
				C21,18.3,21,18.3,21,18.3C21,18.3,21,18.3,21,18.3z M3,72.2c0,0.3,0,0.7,0,1C3,72.9,3,72.5,3,72.2z M3.1,74.1c0,0.3,0,0.6,0,1
				C3.1,74.7,3.1,74.4,3.1,74.1z M3.2,76c0,0.3,0,0.6,0.1,0.8C3.2,76.6,3.2,76.3,3.2,76z M3.4,78.4c0,0.2,0.1,0.4,0.1,0.6
				C3.5,78.8,3.5,78.6,3.4,78.4z M3.7,80.4c0,0.2,0.1,0.4,0.1,0.6C3.8,80.8,3.8,80.6,3.7,80.4z M4.1,82.1c0.1,0.2,0.1,0.4,0.2,0.7
				C4.2,82.5,4.1,82.3,4.1,82.1z M4.5,83.8c0.1,0.2,0.1,0.4,0.2,0.6C4.7,84.2,4.6,84,4.5,83.8z M5.1,85.5c0.1,0.2,0.1,0.3,0.2,0.5
				C5.2,85.9,5.2,85.7,5.1,85.5z M3,70.3c0,0.4,0,0.8,0,1.2C3,71,3,70.7,3,70.3z M7.3,92.6c-0.4-0.9-0.9-1.9-1.3-2.9
				C6.4,90.7,6.8,91.6,7.3,92.6z M7.1,89.9c0.2,0.3,0.3,0.6,0.5,0.9C7.5,90.6,7.3,90.3,7.1,89.9z M8.3,92.1c0.5,1,1.1,1.9,1.6,2.8
				C9.3,93.9,8.8,93,8.3,92.1z M10.1,98c-0.3-0.4-0.5-0.9-0.7-1.3C9.6,97.2,9.9,97.6,10.1,98z M8.7,95.4c-0.3-0.6-0.6-1.1-0.8-1.7
				C8.1,94.2,8.4,94.8,8.7,95.4z M18.6,109.5c6.4,7,14.2,12.5,23,16c0-1.5,0.1-3.2,0.3-4.4c-5.3-1-20.3-6.7-32-26.2
				C5.4,84.5,3.4,73,3.7,61.6c-0.1,0.5-0.1,1.1-0.2,1.6c0.7-6.9,2.2-13.4,3.4-18.1c-0.1-0.6-0.1-1.2,0-1.8c0-0.7,0-1.3-0.1-2
				c0,0,0,0,0,0c0.3-1.1,0.7-2.2,1-3.3c0.4,0.4,0.6,0.9,0.7,1.3c0,0,0,0,0,0c-0.4,1.2-1,3.2-1.6,5.8c0,0.2,0.1,0.5,0.1,0.7
				c0.1,0.5,0.2,0.9,0.2,1.2v0.3l0.1,0.2c0.8,1.5,1.8,3,2.9,4.4l0.3,0.4H11c1.1,0,1.1,0.4,1.1,0.9v0.3l0.1,0.2
				c0.9,1.6,1.7,3.2,2.5,4.9c0,2.2,0,2.8,1,2.9c0.9,0,1.1-0.3,1.3-3.1h0.2c0.3,0.1,0.9,0.7,1.1,0.9v0.9h1c0.3,0,0.6,1.5,0.7,2.3
				c0.2,1.4,0.5,3.3,1.9,3.7c0.5,0.4,1.1,0.6,1.6,0.7c0.2,0,0.5,0.1,0.6,0.2l0.2,0.5H25c1.3,0.2,8.2,2.7,8.8,3.9l-0.2,0.7l0.7,0.4
				c0.3,0.2,0.9,0.8,1.1,1.2l0,0l0,0.2c0.2,1.3,0.5,2.9,1.7,3.4c1.2,0.4,2.2-0.5,2.9-1.2c0,0,0,0,0.1-0.1c0,0.1,0,0.2,0,0.2
				c0,0.3,0,0.9,0,1.8c0,0.2,0,0.3,0,0.5c-0.5,0.2-0.9,0.6-1,1.1c-0.4,0.4-0.6,1.1-0.7,1.5c0,0.1-1.2,5.3,0.1,6.6
				c0.3,0.4,1.6,2.4,2,3.1c0,0.6,0.2,1.2,0.4,1.7c0.1,0.1,0.1,0.3,0.1,0.4c0.3,1.3,2.5,4.7,4.1,5.8c0.2,1.4,0.1,2.5-0.1,3.9
				c-0.1,1-0.2,2-0.2,3.3v0.7c-0.2,0.9-0.6,2.8-1,4.2c-0.9,3.5-1.1,4.3-0.9,4.7c0,0.6,0,1.2,0,1.8c0,0.2,0,0.3,0,0.5
				c-0.2,0.4-0.4,0.8-0.4,1.2c-0.2,0.2-0.4,0.5-0.4,0.8c0,0,0,0.1,0,0.3c-0.1,0.2-0.1,0.5-0.2,0.8c0.4,0.1,0.7,0.1,1,0.1
				c-0.2,1.5-0.3,4.3-0.2,5.7C32.7,123.2,24.7,117.1,18.6,109.5z M11.1,99.5c0.2,0.4,0.4,0.7,0.7,1.1
				C11.5,100.3,11.3,99.9,11.1,99.5z M12.8,102.2c0.2,0.3,0.4,0.6,0.6,0.8C13.2,102.8,13,102.5,12.8,102.2z M14.6,104.8
				c0.2,0.2,0.3,0.4,0.5,0.6C15,105.2,14.8,105,14.6,104.8z M16.6,107.2c0.1,0.1,0.2,0.2,0.3,0.4C16.8,107.4,16.7,107.3,16.6,107.2z
				 M3,69.9c0-1.6,0.1-3.1,0.3-4.7C3.2,66.8,3.1,68.3,3,69.9z M3.3,65c0-0.5,0.1-1,0.1-1.6C3.4,64,3.4,64.5,3.3,65z M6.6,40.4
				C6.6,40.5,6.6,40.5,6.6,40.4C6.6,40.5,6.6,40.5,6.6,40.4z M34.2,67.4c0-0.1,0-0.3,0-0.4l0.3,0.4C34.4,67.4,34.3,67.4,34.2,67.4z
				 M45.6,70.5l-0.3-0.1l-0.1,0l0,0l-0.1,0c0.1-0.2,0.4-0.4,0.5-0.4c0,0,0,0,0,0V70.5z M43.8,121.2
				C43.8,121.1,43.9,121.1,43.8,121.2C43.9,121.1,43.8,121.1,43.8,121.2z M46.5,127.6C46.5,127.6,46.5,127.6,46.5,127.6
				C46.5,127.6,46.5,127.6,46.5,127.6z M46.3,127.6C46.3,127.6,46.3,127.6,46.3,127.6C46.3,127.6,46.3,127.6,46.3,127.6z
				 M119.2,103.2c0.2-1.3,0.4-2.6,0.6-3.9c-0.2,0.3-0.4,0.6-0.6,0.9l-0.8,1.4c-0.1,0.5-0.2,1-0.2,1.4c0.1-0.5,0.2-1,0.2-1.4l0,0l0,0
				l0.8-1.4c1.2-1.8,2.3-3.9,3.3-6.2l-0.3-0.1c-0.1-0.4-0.3-1.1-0.3-1.4v-2.4l-1.7,1.7c-0.1,0.1-0.1,0.1-0.2,0.2l-0.2,0.2
				c-0.4,0.2-0.5,0.5-0.6,0.9c-0.5,0.3-0.8,0.9-0.8,1.5c0,0,0,0,0,0l-1-0.6l-0.5,1.2l-0.3-0.2l-0.4,1.3c-0.2,0.7-1,4.9-0.2,7.5
				c0.3-0.2,0.6-0.5,0.9-0.7c0,0,0,0,0,0c0.2,1,0.6,1.6,1.3,1.7c-16.1,21.6-44.5,31.2-70.5,23.9c-0.1-0.2-0.2-0.4-0.2-0.6
				c-0.1,0-0.2-0.1-0.2-0.1c0,0,0,0,0,0c0.7,0.1,1.8,0.3,3.1,0.4c-0.6-0.2-1.3-0.3-1.9-0.5V127H49l0.2-0.7c0.1-0.3,0.2-0.4,0.4-0.6
				c0.1-0.1,0.3-0.3,0.4-0.5c0,0,0.1,0,0.1-0.1c0.3-0.2,0.4-0.5,0.4-0.9c0-0.5-0.4-1-0.8-1.2c0-0.2,0.1-0.3,0.1-0.5
				c0.5-0.7,1.1-1.4,1.5-2.1l0.5,0v-1c0,0,0-0.1,0-0.2c0.2,0,0.3-0.1,0.5-0.2c0.3-0.2,0.4-0.5,0.5-0.8c0.1-0.2,0.2-0.4,0.2-0.5
				c1.2-0.4,2.3-0.8,3.3-1.4l0.5-0.3l0-0.8c0-0.6,0.1-1,0-1.3c0.1,0,0.2-0.1,0.3-0.1c0.3-0.1,0.6-0.3,0.9-0.6
				c0.5-0.4,0.8-1.1,1.2-1.8c0.6-1.1,1-1.9,1.7-1.9h0.5l0.3-0.4c0.9-1.2,1.3-2.7,1.1-4.3c0.1-0.1,0.2-0.2,0.3-0.3
				c0.1-0.1,0.1-0.1,0.2-0.2c0.2-0.1,0.4-0.2,0.6-0.2c0.1,0,0.2-0.1,0.3-0.1l0.6,0.1l0.3-0.6c0.2-0.2,0.9-0.6,1.3-0.9
				c0.4-0.2,0.8-0.5,1.1-0.7l0.3-0.2l0.1-0.3c0.1-0.3,0.2-0.5,0.4-0.8c0.3-0.4,0.6-0.9,0.7-1.6c0.6-0.9,0.6-2.5,0.7-3
				c0.1-0.5,0.1-1.2,0.1-2.1c0.5-0.5,1-1.1,1.3-1.6c1.1-0.9,1.6-2.1,1.4-3.5c-0.4-2.4-2.9-4.7-4.5-5.2l-0.2-0.1l-0.2,0
				c-0.6,0.1-1.2,0.2-1.8,0.3c0-0.4-0.2-0.7-0.4-1c-0.2-0.2-0.4-0.4-0.7-0.5l0.1-0.3h-1.4c-0.1,0-0.1-0.1-0.2-0.2
				c-0.3-0.2-0.8-0.6-1.4-0.7l-0.1,0l-0.2-0.8c-0.1-0.7-0.3-1.6-0.8-2.2c0,0,0,0,0,0c0-0.6-0.3-1-0.8-1.4c-0.1-0.2-0.2-0.3-0.4-0.4
				l-0.2-0.4h-0.4c0,0,0,0,0,0c-0.3-0.2-0.8-0.6-1.5-0.3c-0.1,0-0.1,0.1-0.2,0.1c-0.7-0.3-1.9-0.8-2.2-1.2l-0.1-0.2
				c-0.2-0.5-0.5-0.8-0.7-0.9l-0.2-0.6L53,72.9c-0.5,0.1-2.2-0.9-3-1.4c-1.2-0.7-1.9-1.2-2.6-1.3l-0.2,0l0-0.1l-0.9-0.3
				c-0.1,0-0.2-0.1-0.4-0.1l-1-0.3l-0.3,1.4c-0.4,0.2-0.9,0.5-1.3,0.7c-0.2,0-0.3,0-0.4,0c-0.2,0.1-0.5,0.2-0.7,0.5
				c-0.3,0.2-0.5,0.5-0.6,1c-0.4-0.3-0.9-0.5-1.5-0.5h-1v0.7c-0.1,0-0.2,0-0.3,0c-0.1-0.4-0.3-0.8-0.8-1.2c0-0.2-0.1-0.4-0.2-0.6
				c-0.1-0.4-0.2-0.7-0.2-1v-1h-0.3c0-0.6,0.1-1.3-0.4-1.9c-0.2-0.2-0.6-0.5-1.2-0.5h-1.7c0-0.5,0.1-1,0.3-1.5
				c0.3-0.2,0.4-0.6,0.5-0.7c0,0,0,0,0,0l0.1-0.1c0.5-0.3,0.7-0.8,0.7-1.3l0.2,0.2l0.1,0c0.4,0.2,0.9,0.2,1.3,0
				c0.2-0.1,0.4-0.2,0.5-0.4l0,0c1.1,0.5,2.1,1.1,3.2,1.6c0,0,0,0,0,0c-0.2-0.1-0.4-0.1-0.6-0.1l-0.8-0.1L39.6,65
				c-0.2,0.6-0.2,1.1,0.1,1.5c0.2,0.2,0.4,0.3,0.6,0.4l0,0.3l1.2-0.2h0.7l0-0.1l0.9-0.2l0-0.2c0.5,0.2,1,0.2,1.3,0.2
				c0.3,0,0.5,0,0.8-0.1c0.4,0.1,0.7,0,0.9-0.1c0.5,0,0.7,0,1.4,0.1l0.2,0v0.5l1.3-0.4c0,0,0,0,0.1,0c0.3,0.1,0.6,0,0.7,0h1v-1
				c0-0.8-0.6-1.3-1.5-1.3h-0.7l0,0.1H48c-0.4-0.5-1-0.8-1.3-0.9l-0.9-0.2l-0.2,0.6c0,0,0,0,0,0c-0.3-0.1-0.7-0.2-1.2-0.2h-0.2
				c-0.1-0.5-0.5-0.9-0.7-1.2c-0.1-0.1-0.1-0.1-0.1-0.1L43,61.8h-0.6c-0.2,0-0.3,0-0.6-0.3c-0.4-0.3-0.9-0.7-1.9-0.8l-0.6,0
				l-0.3,0.4c-0.1,0-0.1,0-0.2,0c-0.1,0-0.2,0-0.3,0l0.9-1.4c1-1.7,1.1-3.5,0.1-5.3c0-0.4,0.2-0.5,0.6-0.9c0.3-0.2,0.6-0.5,1-1
				c0.9-0.3,1.3-1.2,1.6-1.8c0.1-0.2,0.3-0.5,0.3-0.6l0.4-0.2v-0.5c0-0.2,0.2-0.7,0.3-1.1l0.1-0.1l0.1-0.5c0-0.2,0.1-0.3,0.2-0.4
				c0.1-0.1,0.3-0.3,0.4-0.5l1.2-0.8c0.7-0.5,1.2-1.5,1.5-2.3c0.2-0.1,0.5-0.3,0.6-0.5c0,0,0,0,0,0c0.3,0.7,0.9,0.6,2.1,0.5l0.2,0
				l0.2-0.1c0.7-0.3,1.3-0.7,2-1.2l0,0c1.2-0.1,1.6-0.7,1.7-1.3l0.6-0.4l-0.6,0V39l-1.5,0.9c-0.1,0.1-0.2,0.1-0.3,0.1
				c-0.2,0.1-0.4,0.2-0.6,0.4c-0.2-0.1-0.4-0.3-0.5-0.5h0.2v-1c0-0.1,0-0.3-0.1-0.5c1.2,0.1,2.7,0.1,3.4-1.3
				c0.6,0.1,1.4,0.2,1.9-0.2c0.1-0.1,0.3-0.3,0.4-0.4c0,0,0,0,0,0c0.1-0.1,0.1-0.2,0.2-0.3h0.6l-0.2-1.2c-0.1-0.6-0.7-1.3-1.4-1.7
				c-0.1-0.3-0.3-0.6-0.7-0.7c-0.3-0.1-0.6-0.1-0.8,0c-0.1-0.1-0.1-0.1-0.2-0.1l-0.6-0.6c-0.4-0.5-0.8-1.2-1.2-1.7
				c-1.5-2.3-1.9-2.8-2.8-2.2l-0.5,0.3v0.5c0,0.2-0.1,0.5-0.2,0.5h-0.1v-0.2h-0.3v-0.5h-0.7c-0.3-0.3-0.9-0.9-1.1-1.2v-1.2l-1.3,0.4
				c-0.2-0.2-0.5-0.5-1-0.7l-0.3-0.1l-0.3,0c-1.2,0.2-2.3,0.2-3.5,0.2l-0.3,0l-0.8-1.1c-0.3-0.4-0.9-0.7-1.5-0.9
				c-0.1-0.1-0.3-0.1-0.5-0.2v-0.5c0-0.2,0.4-0.5,0.6-0.7c0.5-0.4,1.2-1.1,0.9-1.9c-0.2-0.8-1-1.1-1.9-1.3c-0.3-0.6-0.9-0.6-1-0.6
				l-1,0l0,0.2c-0.1,0-0.3,0-0.4,0.1l-0.6,0.2v0.7c0,0.2,0,0.4,0.1,0.5v0.1c-0.3-0.5-0.6-0.8-1.2-1L31.9,19v0.3
				c-0.1-0.1-0.1-0.2-0.2-0.2c-0.1-0.2-0.2-0.3-0.3-0.4c-0.3-0.9-1.1-1.3-1.6-1.5L29.5,17l-0.3,0.1c-1.2,0.4-2,1.2-2.4,2.2
				c-0.5-0.1-1.1-0.1-1.5,0.1c-0.3-0.7-0.9-1-1.8-0.9c-0.2-0.4-0.4-0.7-0.6-0.9c0-0.1,0-0.1,0-0.1c3.1-1.9,14.1-7,19.5-9.8
				c-0.2,0.1-0.5,0.2-0.7,0.3c3-1.3,6.2-2.5,9.3-3.5c-0.8,0.3-1.7,0.6-2.5,0.9c6.1-1,20.3-2.7,32.4,0.2c11,2.6,19.9,10.1,22.8,13.2
				c-2.5,0.2-7.1,2.4-8.3,3c-0.1,0-0.1,0.1-0.2,0.1c-0.1,0-0.1,0.1-0.1,0.1l0,0c-1,0.6-2.3,2.3-2.3,3c0,0.1,0,0.3,0.1,0.4
				c-0.5,0.2-1.3,0.4-1.7,0.5c-0.8,0.2-1.7,0.4-2.2,0.9c-0.4,0-1,0.1-1.3,0.7c-0.3,0.4-0.3,0.9,0,1.5c0.1,0.3,0.4,0.6,0.8,1.2
				c0.1,0.2,0.3,0.3,0.3,0.4l0.2,0.5h0.6c0.3,0,0.7,0.1,1.1,0.2c0,0,0.1,0,0.1,0l-0.3,0.1l0,0.8c0,0.5,0,1.2,0.1,1.9
				c-0.2,0-0.5,0.1-0.8,0.3V34l-1.3,0.9c-0.2-0.2-0.5-0.4-0.8-0.5l0,0c-0.2-0.4-0.4-0.9-0.7-1.2c-0.5-0.8-0.8-1.3-0.7-1.9l0.3-1.5
				L85.6,30c-0.2-0.4-0.6-0.7-1.2-0.7h-0.8L83.4,30c0,0,0,0,0,0c0,0.1,0,0.2-0.1,0.2c-0.1,0-0.1,0-0.2,0.1c-0.7,0.2-0.7,0.6-0.7,2.2
				c0,0,0,0,0,0c-0.5-0.3-1.5-0.8-2,0c-0.2,0.3-0.2,0.6-0.2,0.8c-0.5,0.2-1,0.5-1,1.2c0,0.1,0,0.3,0.1,0.4c-0.2,0.4-0.4,1.2,0.4,1.9
				l0.5,0.5l0.6-0.2c0.5-0.2,1-0.4,1.5-0.7l0.3,1.2c0.2,0.7,0.6,0.9,0.9,0.9c0,0,0,0,0.1,0c-0.2,0.1-0.3,0.3-0.4,0.7
				c-0.1,0.7,0.4,1.1,1.1,1.3c0.1,0.2,0.3,0.5,0.5,0.7c0.7,0.8,0.6,0.9,0.5,1.1L85,42.4c-0.3-0.2-0.7-0.3-1.1-0.3l-1,0v0.6
				c-0.1,0-0.3,0-0.4,0c-0.2,0-0.4,0-0.6,0c-0.1-0.1-0.3-0.2-0.6-0.3l-0.9-0.2L80,43c-0.1,0.1-0.6,2.9-0.5,4.3h0
				c0,1.4,0.9,2.7,2.4,3.3c0,0.1,0.1,0.2,0.2,0.2c-0.4,0.2-0.6,0.5-0.9,0.8l0,0l-0.4,0.1c-0.5,0.1-0.7,0.4-0.8,0.6
				c-0.1,0.1-0.2,0.3-0.3,0.5L79.4,53v0.3c0,0.2-0.2,0.7-0.4,1.1l-1.8,0l1.4,1.4c-0.2,0.2-0.3,0.4-0.5,0.7c-0.1,0.2-0.3,0.5-0.4,0.5
				l-0.3,0.1l-0.1,0.2c-1.6,2.7-2,4.9-2.4,7.2c-0.2,0.9-0.3,1.9-0.6,2.9c-0.2,0.2-0.3,0.5-0.4,0.8c-0.2,0.7-0.1,1.6,0.5,2.1
				c0.3,1.3,1.3,3.5,2.3,4.4c0.4,1.1,1.6,2.5,2.8,2.9c1,0.8,3.1,1.3,4,1.1c0.2,0,0.4-0.1,0.5-0.2c0.3,0,0.6,0,0.9,0
				c2.2,0,5.1-0.1,7,0.6c0,0.9-0.2,2.2-0.4,2.5l-0.2,0.3v0.4c0,1.5,0.5,2.7,1.4,3.4c0.2,0.3,0.4,0.8,0.8,1.2
				c0.6,2.6,0.5,5.2-0.3,7.8c-0.2,0.3-0.1,0.6,0.5,2.9c0.5,1.9,1.5,5.9,1.6,6.4v1h0.5c0.2,0.4,0.4,1.2,0.5,1.7
				c0.5,1.7,0.9,3.1,1.5,3.8c0.1,0.3,0.1,0.6,0.2,0.9c0.1,0.4,0.2,0.7,0.2,0.9v0.3l0.2,0.2c0.7,1,2.1,0.8,3.1,0.6
				c0.2,0,0.5-0.1,0.6-0.1h0.7c0.1-0.1,0.2-0.1,0.3-0.2v-0.2c0.1,0,0.2-0.1,0.4-0.1c0.8-0.6,1.6-1.1,2.4-1.7
				c-0.1,0.1-0.3,0.2-0.4,0.3c0.1,0,0.2,0,0.2,0c0.1-0.1,0.2-0.2,0.2-0.3c0.9-0.6,1.8-1.2,2.6-1.8c0.8-1,1.5-2,2.4-2.9l0.2-0.3V106
				c0.1-0.2,0.2-0.5,0.3-0.8c0.5-1.3,0.6-1.7,0.6-2.1c0-0.7,0.1-1.3,0.2-1.9c0.1-0.5,0.2-1.1,0.2-1.7c0.1-0.2,0.2-0.3,0.3-0.5
				c0-0.1,0.1-0.2,0.2-0.3l0.4,0l0.3-0.5c0,0,0.2-0.1,0.3-0.2c0.2-0.1,0.3-0.2,0.5-0.3l0.4-0.3v-0.5c0-0.2,0.1-0.5,0.3-0.8
				c0.2-0.5,0.5-1.1,0.5-1.9v-1h-0.1c-0.1-1.7-0.3-5.6-0.4-7.2c0.8-0.6,1.8-2,3.8-4.7c1-1.4,2.3-3.2,2.7-3.5l0.5-0.3v-0.6
				c0,0,0,0,0-0.1h0.6l-0.2-1.1c-0.1-0.4,0.1-0.7,0.4-1.3c0.3-0.6,0.6-1.2,0.6-2.1v-1.4l-1.3,0.4c-1.3,0.4-2.5,0.5-3.5,0.2
				c1.7-0.6,3.4-1.4,5-2.1l0.8-0.4l-0.1-0.4c0.4-0.3,1-0.6,1.3-0.8c0.9-0.5,1.4-0.8,1.5-1.2c0.5-0.8,0.9-1.7,1.2-2.6
				c0.6-0.6,1-1.5,0.8-2.3c-0.1-0.4-0.2-0.7-0.5-1c0.1,0,0.2,0,0.3,0c0.1,0,0.2,0,0.3,0.1c0-0.4,0-0.7,0-1v0
				c0.4,0.1,1.1,0.2,1.7,0.2C132.2,75.1,127.9,90.8,119.2,103.2z M117.7,99.2c-0.1,1-0.1,2.2,0,3.1l0,0l0,0c0,0,0,0,0,0c0,0,0,0,0,0
				C117.5,101.4,117.6,100.2,117.7,99.2z M118.4,101.7c0,0-0.3,0.2-0.7,0.6C118.1,101.9,118.4,101.7,118.4,101.7z M117.7,99
				c0-0.3,0.1-0.6,0.1-0.9C117.7,98.3,117.7,98.6,117.7,99z M118,103.6c-0.1-0.1-0.1-0.2-0.2-0.4C117.9,103.3,118,103.5,118,103.6z
				 M117.8,103c0-0.1-0.1-0.2-0.1-0.4C117.7,102.8,117.8,102.9,117.8,103z M117.3,102.5c0,0-0.1,0.1-0.1,0.1
				C117.2,102.6,117.3,102.6,117.3,102.5z M49.8,65L49.8,65c0.1,0,0.1,0,0.2,0.1c0.2,0.2,0.3,0.5,0.2,0.6L50,65.6
				C50,65.4,49.9,65.2,49.8,65z M23.7,16.8c0.2-0.1,0.3-0.2,0.5-0.3C24,16.6,23.8,16.7,23.7,16.8z M24.6,16.3
				c0.2-0.1,0.3-0.2,0.5-0.3C24.9,16.1,24.8,16.2,24.6,16.3z M25.6,15.7c0.2-0.1,0.3-0.2,0.5-0.3C26,15.5,25.8,15.6,25.6,15.7z
				 M27.2,14.9c0.1-0.1,0.3-0.2,0.4-0.2C27.5,14.7,27.3,14.8,27.2,14.9z M28.4,14.2c0.2-0.1,0.3-0.2,0.5-0.3
				C28.8,14,28.6,14.1,28.4,14.2z M29.8,13.5c0.2-0.1,0.4-0.2,0.6-0.3C30.2,13.3,30,13.4,29.8,13.5z M31.2,12.8
				c0.2-0.1,0.4-0.2,0.6-0.3C31.6,12.6,31.4,12.7,31.2,12.8z M32.7,12.1c0.2-0.1,0.4-0.2,0.6-0.3C33.1,11.9,32.9,12,32.7,12.1z
				 M34.8,11.1c0.2-0.1,0.4-0.2,0.7-0.3C35.2,10.9,35,11,34.8,11.1z M36.4,10.3c0.3-0.1,0.5-0.2,0.8-0.3
				C36.9,10.1,36.7,10.2,36.4,10.3z M38.1,9.6c0.3-0.1,0.5-0.2,0.8-0.4C38.6,9.3,38.3,9.5,38.1,9.6z M39.8,8.8
				c0.3-0.1,0.5-0.2,0.8-0.3C40.4,8.6,40.1,8.7,39.8,8.8z M64.6,1.5c-0.8,0.1-1.5,0.2-2.3,0.3C63.1,1.7,63.8,1.6,64.6,1.5z M62,1.8
				c-0.7,0.1-1.4,0.2-2.2,0.4C60.6,2.1,61.3,1.9,62,1.8z M59.2,2.3c-0.7,0.1-1.4,0.3-2.1,0.5C57.8,2.6,58.5,2.5,59.2,2.3z M56.7,2.9
				c-0.9,0.2-1.7,0.4-2.6,0.7C55,3.3,55.9,3.1,56.7,2.9z M53.9,3.7c-0.8,0.2-1.6,0.5-2.3,0.7C52.3,4.1,53.1,3.9,53.9,3.7z
				 M85.1,30.1c-0.1,0-0.2,0.1-0.3,0.1l-1-0.2c0,0,0,0,0,0c0.2-0.2,0.6-0.3,1-0.1C84.9,30,85,30.1,85.1,30.1z"/>
		</g>
		<g id="XMLID_77_">
			<path id="XMLID_79_" class="st2" d="M65.6,6c32.9,0,59.6,26.7,59.6,59.6s-26.7,59.6-59.6,59.6S6,98.5,6,65.6S32.7,6,65.6,6
				 M65.6,0C29.4,0,0,29.4,0,65.6c0,36.2,29.4,65.6,65.6,65.6c36.2,0,65.6-29.4,65.6-65.6C131.2,29.4,101.8,0,65.6,0L65.6,0z"/>
		</g>
	</g>
</g>
</svg>
