<?xml version="1.0" encoding="utf-8"?>
<!-- Generator: Adobe Illustrator 19.0.1, SVG Export Plug-In . SVG Version: 6.00 Build 0)  -->
<svg version="1.1" id="Layer_1" xmlns="http://www.w3.org/2000/svg" xmlns:xlink="http://www.w3.org/1999/xlink" x="0px" y="0px"
	 viewBox="0 0 85.8 128.8" style="enable-background:new 0 0 85.8 128.8;" xml:space="preserve">
<style type="text/css">
	.st0{fill:#003E54;}
	.st1{fill:#2D9EB2;}
	.st2{fill:#00A651;}
	.st3{fill:#2D9EB2;stroke:#FFFFFF;stroke-width:2;stroke-miterlimit:10;}
	.st4{fill:#2D9EB2;stroke:#FFFFFF;stroke-width:3;stroke-miterlimit:10;}
	.st5{fill:#2D9EB2;stroke:#003E54;stroke-width:2;stroke-miterlimit:10;}
	.st6{fill:none;stroke:#000000;stroke-width:8;stroke-linecap:round;stroke-miterlimit:10;}
	.st7{fill:none;stroke:#000000;stroke-width:8;stroke-linecap:round;stroke-linejoin:round;stroke-miterlimit:10;}
	.st8{fill:none;stroke:#000000;stroke-width:11.7833;stroke-linecap:round;stroke-miterlimit:10;}
	.st9{fill:none;stroke:#000000;stroke-width:11.7833;stroke-linecap:round;stroke-linejoin:round;stroke-miterlimit:10;}
	.st10{fill:none;stroke:#2D9EB2;stroke-width:11.7833;stroke-linecap:round;stroke-miterlimit:10;}
	.st11{fill:none;stroke:#2D9EB2;stroke-width:10;stroke-linecap:round;stroke-linejoin:round;stroke-miterlimit:10;}
</style>
<g id="XMLID_17_">
	<path id="XMLID_18_" class="st1" d="M85.8,42.9c0,7.6-2.1,14.9-5.5,21l-35,63.5c-0.4,0.7-1.5,1.3-2.4,1.3c-1,0-1.9-0.6-2.4-1.3
		l-35-63.5C1.9,57.8,0,50.5,0,42.9C0,19.2,19.2,0,42.9,0C66.6,0,85.8,19.2,85.8,42.9z M59,42.9c0-8.9-7.2-16.1-16.1-16.1
		c-8.9,0-16.1,7.2-16.1,16.1C26.8,51.9,34,59,42.9,59C51.9,59,59,51.9,59,42.9z"/>
</g>
</svg>
