<?xml version="1.0" encoding="utf-8"?>
<!-- Generator: Adobe Illustrator 19.0.1, SVG Export Plug-In . SVG Version: 6.00 Build 0)  -->
<svg version="1.1" id="Layer_1" xmlns="http://www.w3.org/2000/svg" xmlns:xlink="http://www.w3.org/1999/xlink" x="0px" y="0px"
	 viewBox="0 0 181 118" style="enable-background:new 0 0 181 118;" xml:space="preserve">
<style type="text/css">
	.st0{fill:#FFFFFF;}
	.st1{fill:#003E54;}
	.st2{fill:#2D9EB2;}
	.st3{fill:#00A651;}
	.st4{fill:#77AD39;}
	.st5{fill:#2D9EB2;stroke:#FFFFFF;stroke-width:3;stroke-miterlimit:10;}
	.st6{fill:#2D9EB2;stroke:#FFFFFF;stroke-width:2;stroke-miterlimit:10;}
	.st7{clip-path:url(#XMLID_441_);}
	.st8{fill:#2D9EB2;stroke:#003E54;stroke-width:2;stroke-miterlimit:10;}
	.st9{fill:none;stroke:#000000;stroke-width:8;stroke-linecap:round;stroke-miterlimit:10;}
	.st10{fill:none;stroke:#000000;stroke-width:8;stroke-linecap:round;stroke-linejoin:round;stroke-miterlimit:10;}
	.st11{fill:none;stroke:#000000;stroke-width:11.7833;stroke-linecap:round;stroke-miterlimit:10;}
	.st12{fill:none;stroke:#000000;stroke-width:11.7833;stroke-linecap:round;stroke-linejoin:round;stroke-miterlimit:10;}
	.st13{fill:none;stroke:#FFC247;stroke-width:11.7833;stroke-linecap:round;stroke-miterlimit:10;}
	.st14{fill:#FFC247;}
	.st15{fill:none;stroke:#FFC247;stroke-width:10;stroke-linecap:round;stroke-linejoin:round;stroke-miterlimit:10;}
	.st16{fill:#C7C6C5;}
</style>
<g id="XMLID_373_">
	<g id="XMLID_192_">
		<path id="XMLID_195_" class="st1" d="M181,95.7c0,1.1-0.9,2-2,2H87c-1.1,0-2-0.9-2-2v-4c0-20,36-16,36-32c0,0-12-12-12-34
			c0-13.2,10.8-24,24-24s24,10.8,24,24c0,22-12,34-12,34c0,16,36,12,36,32V95.7z"/>
	</g>
	<g id="XMLID_194_">
		<path id="XMLID_329_" class="st1" d="M95.9,95.7c0,1.1-0.9,2-2,2H2c-1.1,0-2-0.9-2-2v-4c0-20,36-16,36-32c0,0-12-12-12-34
			C24,15.2,30.7,5.3,40.6,3c2.1-0.5,5.5,1.2,7.5,1c2.4-0.2,5.1-1.6,7.5-0.9c9.6,2.7,16.4,12.2,16.4,22.7c0,22-12,34-12,34
			c0,16,36,12,36,32V95.7z"/>
	</g>
	<path id="XMLID_5_" class="st1" d="M25.2,18.3c-0.7,1.8-2.9,9.6-0.5,24c2,12-10,19.8-10,19.8s14.8,9.2,26.4-5.8
		S25.9,16.4,25.2,18.3z"/>
	<path id="XMLID_39_" class="st1" d="M70.8,18.3c0,0,3.5,12,1.8,24.2c-1.3,9.1,8.7,21.4,8.7,21.4s-14.8,7.3-26.4-7.7
		S70.8,18.3,70.8,18.3z"/>
	<path id="XMLID_34_" class="st1" d="M157,25.8c0,0-1.6-17.2-4.2-19.6c-2.7-2.3-6.3-2-8.7-2.3s-9.3-5-15.3-3.7c-6,1.3-11,3-13,5
		s-5.8,3.4-5.7,5.1c0.1,2.1-2.6,5.5-2.5,7.5c0.1,1.1,1.5,4.7,1.8,6.7C109.7,26.6,157,25.8,157,25.8z"/>
</g>
<g id="XMLID_326_">
	<g id="XMLID_327_">
		<path id="XMLID_388_" class="st16" d="M132.3,43.6v57.5c0,2.9-2.3,5.2-5.2,5.2h-26.1v1l14.6,7.4c0.7,0.2,1.1,0.9,1.1,1.5
			c0,1-0.8,1.7-1.7,1.7H66.1c-0.8,0-1.5-0.6-1.7-1.4c-0.1-0.8,0.2-1.5,1-1.9l14.7-7.4v-1H53.9c-2.9,0-5.2-2.3-5.2-5.2V43.6
			c0-2.9,2.3-5.2,5.2-5.2h73.2C130,38.4,132.3,40.7,132.3,43.6z"/>
	</g>
</g>
</svg>
