<?xml version="1.0" encoding="utf-8"?>
<!-- Generator: Adobe Illustrator 19.0.1, SVG Export Plug-In . SVG Version: 6.00 Build 0)  -->
<!DOCTYPE svg PUBLIC "-//W3C//DTD SVG 1.1//EN" "http://www.w3.org/Graphics/SVG/1.1/DTD/svg11.dtd">
<svg version="1.1" id="Layer_1" xmlns="http://www.w3.org/2000/svg" xmlns:xlink="http://www.w3.org/1999/xlink" x="0px" y="0px"
	 viewBox="0 0 247 247" style="enable-background:new 0 0 247 247;" xml:space="preserve">
<style type="text/css">
	.st0{fill:#FFFFFF;}
	.st1{fill:#003E54;}
	.st2{fill:#2D9EB2;}
	.st3{fill:#00A651;}
	.st4{fill:#2D9EB2;stroke:#FFFFFF;stroke-width:3;stroke-miterlimit:10;}
	.st5{fill:#2D9EB2;stroke:#FFFFFF;stroke-width:2;stroke-miterlimit:10;}
	.st6{clip-path:url(#XMLID_991_);}
	.st7{fill:#2D9EB2;stroke:#003E54;stroke-width:2;stroke-miterlimit:10;}
	.st8{fill:none;stroke:#000000;stroke-width:8;stroke-linecap:round;stroke-miterlimit:10;}
	.st9{fill:none;stroke:#000000;stroke-width:8;stroke-linecap:round;stroke-linejoin:round;stroke-miterlimit:10;}
	.st10{fill:none;stroke:#000000;stroke-width:11.7833;stroke-linecap:round;stroke-miterlimit:10;}
	.st11{fill:none;stroke:#000000;stroke-width:11.7833;stroke-linecap:round;stroke-linejoin:round;stroke-miterlimit:10;}
	.st12{fill:none;stroke:#2D9EB2;stroke-width:11.7833;stroke-linecap:round;stroke-miterlimit:10;}
	.st13{fill:none;stroke:#2D9EB2;stroke-width:10;stroke-linecap:round;stroke-linejoin:round;stroke-miterlimit:10;}
	.st14{fill:#C7C6C5;}
	.st15{fill:none;stroke:#2D9EB2;stroke-width:12;stroke-linecap:round;stroke-linejoin:round;stroke-miterlimit:10;}
	.st16{fill:none;stroke:#C7C6C5;stroke-width:8;stroke-linecap:round;stroke-linejoin:round;stroke-miterlimit:10;}
	.st17{fill:none;stroke:#2D9EB2;stroke-width:8;stroke-linecap:round;stroke-linejoin:round;stroke-miterlimit:10;}
	.st18{fill:none;stroke:#2D9EB2;stroke-width:4;stroke-miterlimit:10;}
	.st19{fill:#2D9EB2;stroke:#2D9EB2;stroke-width:4;stroke-miterlimit:10;}
	.st20{fill:none;stroke:#2D9EB2;stroke-width:4;stroke-linejoin:round;stroke-miterlimit:10;}
	.st21{fill:#FFFFFF;stroke:#2D9EB2;stroke-width:4;stroke-miterlimit:10;}
	.st22{fill:#2D9EB2;stroke:#2D9EB2;stroke-width:4;stroke-linecap:round;stroke-linejoin:round;stroke-miterlimit:10;}
	.st23{fill:none;stroke:#2D9EB2;stroke-width:4;stroke-linecap:round;stroke-linejoin:round;stroke-miterlimit:10;}
	.st24{fill:none;stroke:#2D9EB2;stroke-width:6;stroke-linejoin:round;stroke-miterlimit:10;}
	.st25{fill:#2D9EB2;stroke:#2D9EB2;stroke-width:6;stroke-linecap:round;stroke-linejoin:round;stroke-miterlimit:10;}
	.st26{fill:none;stroke:#2D9EB2;stroke-width:6;stroke-linecap:round;stroke-linejoin:round;stroke-miterlimit:10;}
	.st27{fill:#2D9EB2;stroke:#2D9EB2;stroke-width:0.9467;stroke-miterlimit:10;}
	.st28{fill:none;stroke:#2D9EB2;stroke-width:2;stroke-miterlimit:10;}
	.st29{fill:none;stroke:#2D9EB2;stroke-miterlimit:10;}
</style>
<polygon id="XMLID_911_" class="st2" points="123.5,0 134.1,15.3 147.6,2.4 155,19.5 170.8,9.4 174.7,27.7 192.1,20.8 192.4,39.5 
	210.8,36.2 207.5,54.6 226.2,54.9 219.3,72.3 237.6,76.2 227.5,91.9 244.6,99.4 231.6,112.8 247,123.5 231.6,134.1 244.6,147.6 
	227.5,155 237.6,170.8 219.3,174.7 226.2,192.1 207.5,192.4 210.8,210.8 192.4,207.5 192.1,226.2 174.7,219.3 170.8,237.6 
	155,227.5 147.6,244.6 134.1,231.6 123.5,247 112.8,231.6 99.4,244.6 91.9,227.5 76.2,237.6 72.3,219.3 54.9,226.2 54.6,207.5 
	36.2,210.8 39.5,192.4 20.8,192.1 27.7,174.7 9.4,170.8 19.5,155 2.4,147.6 15.3,134.1 0,123.5 15.3,112.8 2.4,99.4 19.5,91.9 
	9.4,76.2 27.7,72.3 20.8,54.9 39.5,54.6 36.2,36.2 54.6,39.5 54.9,20.8 72.3,27.7 76.2,9.4 91.9,19.5 99.4,2.4 112.8,15.3 "/>
<g id="XMLID_923_">
	<path id="XMLID_932_" class="st0" d="M36.8,97.8h13.1L60,114.2l10.4-16.4h12.4l-16.5,24.6l17.9,26.9H70.8l-11.2-17.8l-11.4,17.8
		H35.5l17.9-26.9L36.8,97.8z"/>
	<path id="XMLID_929_" class="st0" d="M87.3,123.5c0.1-2.4,0.7-4.4,1.8-6c1.1-1.6,2.4-2.9,4-3.8c1.6-1,3.5-1.6,5.5-2.1
		c2-0.4,4.1-0.6,6.2-0.6c1.9,0,3.8,0.1,5.7,0.4c1.9,0.3,3.7,0.8,5.3,1.5c1.6,0.8,2.9,1.8,3.9,3.2s1.5,3.2,1.5,5.4V141
		c0,1.7,0.1,3.3,0.3,4.8c0.2,1.5,0.5,2.7,1,3.5h-10.4c-0.2-0.6-0.3-1.2-0.5-1.8c-0.1-0.6-0.2-1.2-0.3-1.8c-1.6,1.7-3.6,2.9-5.8,3.5
		c-2.2,0.7-4.5,1-6.8,1c-1.8,0-3.4-0.2-5-0.6s-2.9-1.1-4-2c-1.2-0.9-2.1-2.1-2.7-3.5c-0.6-1.4-1-3-1-5c0-2.1,0.4-3.9,1.1-5.2
		c0.7-1.4,1.7-2.5,2.9-3.3c1.2-0.8,2.5-1.4,4-1.8c1.5-0.4,3-0.7,4.6-1c1.5-0.2,3-0.4,4.5-0.6c1.5-0.1,2.8-0.4,4-0.6
		c1.2-0.3,2.1-0.7,2.7-1.3c0.7-0.6,1-1.4,0.9-2.4c0-1.1-0.2-2-0.5-2.6c-0.4-0.6-0.8-1.2-1.4-1.5c-0.6-0.4-1.3-0.6-2.1-0.7
		c-0.8-0.1-1.6-0.2-2.6-0.2c-2,0-3.6,0.4-4.8,1.3c-1.2,0.9-1.8,2.3-2,4.3H87.3z M110.9,131c-0.4,0.4-1,0.7-1.6,0.9
		c-0.6,0.2-1.3,0.4-2.1,0.5c-0.7,0.1-1.5,0.3-2.3,0.4c-0.8,0.1-1.6,0.2-2.4,0.4c-0.8,0.1-1.5,0.3-2.3,0.6c-0.7,0.2-1.4,0.6-1.9,1
		c-0.6,0.4-1,0.9-1.3,1.5c-0.3,0.6-0.5,1.4-0.5,2.4c0,0.9,0.2,1.7,0.5,2.3c0.3,0.6,0.8,1.1,1.4,1.5c0.6,0.4,1.2,0.6,2,0.8
		c0.8,0.1,1.6,0.2,2.4,0.2c2,0,3.6-0.3,4.7-1c1.1-0.7,1.9-1.5,2.4-2.4c0.5-0.9,0.9-1.9,1-2.8c0.1-1,0.2-1.7,0.2-2.3V131z"/>
	<path id="XMLID_926_" class="st0" d="M128.6,123.5c0.1-2.4,0.7-4.4,1.8-6c1.1-1.6,2.4-2.9,4-3.8c1.6-1,3.5-1.6,5.5-2.1
		c2-0.4,4.1-0.6,6.2-0.6c1.9,0,3.8,0.1,5.7,0.4c1.9,0.3,3.7,0.8,5.3,1.5c1.6,0.8,2.9,1.8,3.9,3.2s1.5,3.2,1.5,5.4V141
		c0,1.7,0.1,3.3,0.3,4.8c0.2,1.5,0.5,2.7,1,3.5h-10.4c-0.2-0.6-0.3-1.2-0.5-1.8c-0.1-0.6-0.2-1.2-0.3-1.8c-1.6,1.7-3.6,2.9-5.8,3.5
		c-2.2,0.7-4.5,1-6.8,1c-1.8,0-3.4-0.2-5-0.6s-2.9-1.1-4-2c-1.2-0.9-2.1-2.1-2.7-3.5c-0.6-1.4-1-3-1-5c0-2.1,0.4-3.9,1.1-5.2
		c0.7-1.4,1.7-2.5,2.9-3.3c1.2-0.8,2.5-1.4,4-1.8c1.5-0.4,3-0.7,4.6-1c1.5-0.2,3-0.4,4.5-0.6c1.5-0.1,2.8-0.4,4-0.6
		c1.2-0.3,2.1-0.7,2.7-1.3c0.7-0.6,1-1.4,0.9-2.4c0-1.1-0.2-2-0.5-2.6c-0.4-0.6-0.8-1.2-1.4-1.5c-0.6-0.4-1.3-0.6-2.1-0.7
		c-0.8-0.1-1.6-0.2-2.6-0.2c-2,0-3.6,0.4-4.8,1.3c-1.2,0.9-1.8,2.3-2,4.3H128.6z M152.3,131c-0.4,0.4-1,0.7-1.6,0.9
		c-0.6,0.2-1.3,0.4-2.1,0.5c-0.7,0.1-1.5,0.3-2.3,0.4c-0.8,0.1-1.6,0.2-2.4,0.4c-0.8,0.1-1.5,0.3-2.3,0.6c-0.7,0.2-1.4,0.6-1.9,1
		c-0.6,0.4-1,0.9-1.3,1.5c-0.3,0.6-0.5,1.4-0.5,2.4c0,0.9,0.2,1.7,0.5,2.3c0.3,0.6,0.8,1.1,1.4,1.5c0.6,0.4,1.2,0.6,2,0.8
		c0.8,0.1,1.6,0.2,2.4,0.2c2,0,3.6-0.3,4.7-1c1.1-0.7,1.9-1.5,2.4-2.4c0.5-0.9,0.9-1.9,1-2.8c0.1-1,0.2-1.7,0.2-2.3V131z"/>
	<path id="XMLID_924_" class="st0" d="M180.1,136.6c0.6,1.2,1.5,2.2,2.5,2.9c1,0.7,2.2,1.3,3.6,1.7c1.4,0.4,2.8,0.5,4.3,0.5
		c1,0,2.1-0.1,3.2-0.3c1.2-0.2,2.2-0.5,3.2-1c1-0.5,1.8-1.1,2.5-2c0.7-0.8,1-1.9,1-3.2c0-1.4-0.4-2.5-1.3-3.4
		c-0.9-0.9-2.1-1.6-3.5-2.2c-1.4-0.6-3.1-1.1-4.9-1.5c-1.8-0.4-3.7-0.9-5.5-1.4c-1.9-0.5-3.8-1.1-5.6-1.8c-1.8-0.7-3.5-1.6-4.9-2.7
		c-1.4-1.1-2.6-2.5-3.5-4.1c-0.9-1.7-1.3-3.7-1.3-6c0-2.6,0.6-4.9,1.7-6.9c1.1-1.9,2.6-3.6,4.4-4.9c1.8-1.3,3.9-2.3,6.2-2.9
		c2.3-0.6,4.6-0.9,6.9-0.9c2.7,0,5.3,0.3,7.7,0.9c2.5,0.6,4.7,1.6,6.6,2.9c1.9,1.3,3.4,3.1,4.6,5.1c1.1,2.1,1.7,4.6,1.7,7.6h-10.9
		c-0.1-1.5-0.4-2.8-1-3.8c-0.6-1-1.3-1.8-2.2-2.4c-0.9-0.6-2-1-3.1-1.2c-1.2-0.2-2.5-0.4-3.9-0.4c-0.9,0-1.8,0.1-2.7,0.3
		c-0.9,0.2-1.7,0.5-2.5,1c-0.7,0.5-1.4,1.1-1.8,1.8c-0.5,0.7-0.7,1.6-0.7,2.7c0,1,0.2,1.8,0.6,2.4c0.4,0.6,1.1,1.2,2.3,1.7
		c1.1,0.5,2.7,1.1,4.7,1.6c2,0.5,4.6,1.2,7.8,2c1,0.2,2.3,0.5,4,1c1.7,0.5,3.4,1.3,5.1,2.4c1.7,1.1,3.1,2.6,4.4,4.4
		c1.2,1.8,1.8,4.2,1.8,7.1c0,2.4-0.5,4.5-1.4,6.6c-0.9,2-2.3,3.8-4.1,5.2c-1.8,1.5-4,2.6-6.7,3.4c-2.7,0.8-5.7,1.2-9.3,1.2
		c-2.8,0-5.6-0.3-8.2-1s-5-1.8-7.1-3.3c-2-1.5-3.7-3.4-4.9-5.7c-1.2-2.3-1.8-5-1.7-8.2h10.9C179.2,133.9,179.5,135.4,180.1,136.6z"
		/>
</g>
</svg>
