<?xml version="1.0" encoding="utf-8"?>
<!-- Generator: Adobe Illustrator 19.0.1, SVG Export Plug-In . SVG Version: 6.00 Build 0)  -->
<!DOCTYPE svg PUBLIC "-//W3C//DTD SVG 1.1//EN" "http://www.w3.org/Graphics/SVG/1.1/DTD/svg11.dtd">
<svg version="1.1" id="Layer_1" xmlns="http://www.w3.org/2000/svg" xmlns:xlink="http://www.w3.org/1999/xlink" x="0px" y="0px"
	 viewBox="0 0 181.3 180.1" style="enable-background:new 0 0 181.3 180.1;" xml:space="preserve">
<style type="text/css">
	.st0{fill:#FFFFFF;}
	.st1{fill:#003E54;}
	.st2{fill:#2D9EB2;}
	.st3{fill:#00A651;}
	.st4{fill:#2D9EB2;stroke:#FFFFFF;stroke-width:3;stroke-miterlimit:10;}
	.st5{fill:#2D9EB2;stroke:#FFFFFF;stroke-width:2;stroke-miterlimit:10;}
	.st6{clip-path:url(#XMLID_849_);}
	.st7{fill:#2D9EB2;stroke:#003E54;stroke-width:2;stroke-miterlimit:10;}
	.st8{fill:none;stroke:#000000;stroke-width:8;stroke-linecap:round;stroke-miterlimit:10;}
	.st9{fill:none;stroke:#000000;stroke-width:8;stroke-linecap:round;stroke-linejoin:round;stroke-miterlimit:10;}
	.st10{fill:none;stroke:#000000;stroke-width:11.7833;stroke-linecap:round;stroke-miterlimit:10;}
	.st11{fill:none;stroke:#000000;stroke-width:11.7833;stroke-linecap:round;stroke-linejoin:round;stroke-miterlimit:10;}
	.st12{fill:none;stroke:#2D9EB2;stroke-width:11.7833;stroke-linecap:round;stroke-miterlimit:10;}
	.st13{fill:none;stroke:#2D9EB2;stroke-width:10;stroke-linecap:round;stroke-linejoin:round;stroke-miterlimit:10;}
	.st14{fill:#C7C6C5;}
	.st15{fill:none;stroke:#2D9EB2;stroke-width:12;stroke-linecap:round;stroke-linejoin:round;stroke-miterlimit:10;}
	.st16{fill:none;stroke:#C7C6C5;stroke-width:8;stroke-linecap:round;stroke-linejoin:round;stroke-miterlimit:10;}
	.st17{fill:none;stroke:#2D9EB2;stroke-width:8;stroke-linecap:round;stroke-linejoin:round;stroke-miterlimit:10;}
	.st18{fill:none;stroke:#2D9EB2;stroke-width:4;stroke-miterlimit:10;}
	.st19{fill:#2D9EB2;stroke:#2D9EB2;stroke-width:4;stroke-miterlimit:10;}
	.st20{fill:none;stroke:#2D9EB2;stroke-width:4;stroke-linejoin:round;stroke-miterlimit:10;}
	.st21{fill:#FFFFFF;stroke:#2D9EB2;stroke-width:4;stroke-miterlimit:10;}
	.st22{fill:#2D9EB2;stroke:#2D9EB2;stroke-width:4;stroke-linecap:round;stroke-linejoin:round;stroke-miterlimit:10;}
	.st23{fill:none;stroke:#2D9EB2;stroke-width:4;stroke-linecap:round;stroke-linejoin:round;stroke-miterlimit:10;}
	.st24{fill:none;stroke:#2D9EB2;stroke-width:6;stroke-linejoin:round;stroke-miterlimit:10;}
	.st25{fill:#2D9EB2;stroke:#2D9EB2;stroke-width:6;stroke-linecap:round;stroke-linejoin:round;stroke-miterlimit:10;}
	.st26{fill:none;stroke:#2D9EB2;stroke-width:6;stroke-linecap:round;stroke-linejoin:round;stroke-miterlimit:10;}
	.st27{fill:#2D9EB2;stroke:#2D9EB2;stroke-width:0.9467;stroke-miterlimit:10;}
	.st28{fill:none;stroke:#2D9EB2;stroke-width:2;stroke-miterlimit:10;}
	.st29{fill:none;stroke:#2D9EB2;stroke-miterlimit:10;}
	.st30{fill:none;stroke:#2D9EB2;stroke-width:9;stroke-linecap:round;stroke-linejoin:round;stroke-miterlimit:10;}
</style>
<path id="XMLID_776_" class="st2" d="M177.8,52.5c-3.1-5.8-33.6-15.3-48.7-17.8c-2.2-4-5.4-8.6-9.7-13.2C109,10.7,89.7-1.8,56.5,0.2
	c-19,1.1-33.4,7.6-43,19.3C-4.3,41,0.1,73.9,1.5,84.7c0.1,0.8,0.2,1.5,0.3,2c0.4,3.5,1.8,8,3.4,13.2c3.7,12.1,8.9,28.7,3.5,41.5
	c-2.6,6.2,0.2,13.4,7.7,20.5c9.7,9.1,28.6,18.3,47.9,18.3c7.7,0,15.4-1.5,22.6-5c1.5-0.8,3.6-1.8,5.2-16.3
	c11.1,2.9,19.2,2.1,22.7-0.3c9-6.4,11.3-22.8,13.1-36c0.2-1.4,0.4-2.8,0.6-4.1c0.5-0.1,1-0.2,1.4-0.2c4-0.6,9.1-1.4,12-4.6
	c0.9-1,1.8-2,1.3-8.7c14.3,1.6,30,1.7,33,0c3.1-1.7,4.9-13.7,5.2-26.5C181.5,68.9,181.2,58.9,177.8,52.5z M19.7,24.6
	C27.8,14.7,40.4,9.2,57,8.2C59.2,8.1,61.4,8,63.5,8c32.3,0,48.6,15.2,56.3,26.9c-3.1,1.2-7.2,3.5-14.1,3
	c-8.5-0.6-33.6-0.1-41.7,12.8c-6.5,0.1-14.3,0.2-21.4,0.4c0.3-6.9,0.5-12.2,0.1-12.7c-1.1-1.4-10.4-0.9-11.5,0
	c-0.4,0.3-0.9,6-1.3,13.2c-2.8,0.2-5,0.4-6.1,0.6c-3.4,0.8-7.4,1.7-10.4,3.5c-2.1,1.2-3.9,2.5-5.3,3.8C8.7,47.8,11.4,34.6,19.7,24.6
	z M135.2,108.6c-1.5,0.8-4.9,1.3-6.6,1.6c-3.5,0.5-7.2,1.1-7.7,4.7c-0.3,2-0.6,4.2-0.9,6.4c-0.3,2.1-0.6,4.4-1,6.7
	c-2.7,0.5-9.1,0.6-16.8-6.5c-1.6-1.5-4.2-1.4-5.7,0.2c-1.5,1.6-1.4,4.2,0.2,5.7c7.7,7.1,14.9,8.8,19.9,8.8c0.3,0,0.6,0,0.8,0
	c-1.5,6.9-3.7,13.2-7.3,15.7c-3.4,2.2-27.4,1.7-57.4-24.7c-1.7-1.5-4.2-1.3-5.6,0.4c-1.5,1.7-1.3,4.2,0.4,5.6
	c13.4,11.8,26,19,36.8,23.1c-0.5,4.9-1.3,10.1-1.9,12.1c-20.8,9.4-48.3-1-60.5-12.4c-4.8-4.5-6.9-8.8-5.7-11.6
	c6.4-15.5,0.8-33.6-3.3-46.9c-1.5-4.8-2.8-9-3.1-11.8c-0.1-0.6-0.2-1.3-0.3-2.1c-0.2-1.9-0.6-4.4-0.9-7.5c2.2-1.9,5.4-4.4,9.5-6.8
	c2.6-1.4,6.5-2.5,11-3.2C29,67.9,29,69.5,28.9,71c-4.7,2.8-7.7,8.2-7.3,14.1c0.5,8.5,7.6,14.9,15.9,14.4c8.3-0.5,14.6-7.8,14-16.2
	C51.2,77,47,71.7,41.5,69.7c0.1-1.6,0.2-3.2,0.3-4.9c6.8-0.4,13.7-0.4,19.3-0.4c0.2,15.6,9.6,29.5,33,34.7
	c9.8,2.2,21.8,0.3,34.7,3.3c1.9,0.4,4,0.9,6.2,1.2C135.2,105.9,135.3,107.6,135.2,108.6z"/>
</svg>
