<?xml version="1.0" encoding="utf-8"?>
<!-- Generator: Adobe Illustrator 19.0.1, SVG Export Plug-In . SVG Version: 6.00 Build 0)  -->
<!DOCTYPE svg PUBLIC "-//W3C//DTD SVG 1.1//EN" "http://www.w3.org/Graphics/SVG/1.1/DTD/svg11.dtd">
<svg version="1.1" id="Layer_1" xmlns="http://www.w3.org/2000/svg" xmlns:xlink="http://www.w3.org/1999/xlink" x="0px" y="0px"
	 viewBox="0 0 61.4 61.4" style="enable-background:new 0 0 61.4 61.4;" xml:space="preserve">
<style type="text/css">
	.st0{fill:#FFFFFF;}
	.st1{fill:#003E54;}
	.st2{fill:#2D9EB2;}
	.st3{fill:#00A651;}
	.st4{fill:#2D9EB2;stroke:#FFFFFF;stroke-width:3;stroke-miterlimit:10;}
	.st5{fill:#2D9EB2;stroke:#FFFFFF;stroke-width:2;stroke-miterlimit:10;}
	.st6{clip-path:url(#XMLID_1211_);}
	.st7{fill:#2D9EB2;stroke:#003E54;stroke-width:2;stroke-miterlimit:10;}
	.st8{fill:none;stroke:#000000;stroke-width:8;stroke-linecap:round;stroke-miterlimit:10;}
	.st9{fill:none;stroke:#000000;stroke-width:8;stroke-linecap:round;stroke-linejoin:round;stroke-miterlimit:10;}
	.st10{fill:none;stroke:#000000;stroke-width:11.7833;stroke-linecap:round;stroke-miterlimit:10;}
	.st11{fill:none;stroke:#000000;stroke-width:11.7833;stroke-linecap:round;stroke-linejoin:round;stroke-miterlimit:10;}
	.st12{fill:none;stroke:#2D9EB2;stroke-width:11.7833;stroke-linecap:round;stroke-miterlimit:10;}
	.st13{fill:none;stroke:#2D9EB2;stroke-width:10;stroke-linecap:round;stroke-linejoin:round;stroke-miterlimit:10;}
	.st14{fill:#C7C6C5;}
	.st15{fill:none;stroke:#2D9EB2;stroke-width:12;stroke-linecap:round;stroke-linejoin:round;stroke-miterlimit:10;}
	.st16{fill:none;stroke:#C7C6C5;stroke-width:8;stroke-linecap:round;stroke-linejoin:round;stroke-miterlimit:10;}
	.st17{fill:none;stroke:#2D9EB2;stroke-width:8;stroke-linecap:round;stroke-linejoin:round;stroke-miterlimit:10;}
	.st18{fill:none;stroke:#2D9EB2;stroke-width:4;stroke-miterlimit:10;}
	.st19{fill:#2D9EB2;stroke:#2D9EB2;stroke-width:4;stroke-miterlimit:10;}
	.st20{fill:none;stroke:#2D9EB2;stroke-width:4;stroke-linejoin:round;stroke-miterlimit:10;}
	.st21{fill:#FFFFFF;stroke:#2D9EB2;stroke-width:4;stroke-miterlimit:10;}
	.st22{fill:#2D9EB2;stroke:#2D9EB2;stroke-width:4;stroke-linecap:round;stroke-linejoin:round;stroke-miterlimit:10;}
	.st23{fill:none;stroke:#2D9EB2;stroke-width:4;stroke-linecap:round;stroke-linejoin:round;stroke-miterlimit:10;}
	.st24{fill:none;stroke:#2D9EB2;stroke-width:6;stroke-linejoin:round;stroke-miterlimit:10;}
	.st25{fill:#2D9EB2;stroke:#2D9EB2;stroke-width:6;stroke-linecap:round;stroke-linejoin:round;stroke-miterlimit:10;}
	.st26{fill:none;stroke:#2D9EB2;stroke-width:6;stroke-linecap:round;stroke-linejoin:round;stroke-miterlimit:10;}
	.st27{fill:#2D9EB2;stroke:#2D9EB2;stroke-width:0.9467;stroke-miterlimit:10;}
</style>
<g id="XMLID_1315_">
	<path id="XMLID_1362_" class="st27" d="M2.5,48.7c0-5.6,4.6-10.2,10.2-10.2s10.2,4.6,10.2,10.2s-4.6,10.2-10.2,10.2
		S2.5,54.4,2.5,48.7 M0.5,48.7c0,6.7,5.5,12.2,12.2,12.2s12.2-5.5,12.2-12.2s-5.5-12.2-12.2-12.2S0.5,42,0.5,48.7L0.5,48.7z"/>
	<g id="XMLID_1354_">
		<circle id="XMLID_1361_" class="st27" cx="12.6" cy="48.7" r="2.8"/>
		<g id="XMLID_1358_">
			<path id="XMLID_1360_" class="st27" d="M12.9,49.9l6.9-4c-1-1.7-3.1-0.5-3.1-0.5l-4.9,2.8L12.9,49.9z"/>
			<path id="XMLID_1359_" class="st27" d="M12.4,47.9l-7.1,4.1c1,1.7,3.1,0.5,3.1,0.5l5-2.9L12.4,47.9z"/>
		</g>
		<g id="XMLID_1355_">
			<path id="XMLID_1357_" class="st27" d="M11.6,49.1l4,7c1.7-1,0.5-3.1,0.5-3.1l-2.8-4.9L11.6,49.1z"/>
			<path id="XMLID_1356_" class="st27" d="M13.7,48.7l-4-7c-1.7,1-0.5,3.1-0.5,3.1l2.8,4.9L13.7,48.7z"/>
		</g>
	</g>
	<path id="XMLID_1351_" class="st27" d="M2.5,12.7C2.5,7,7,2.5,12.7,2.5S22.9,7,22.9,12.7s-4.6,10.2-10.2,10.2S2.5,18.3,2.5,12.7
		 M0.5,12.7c0,6.7,5.5,12.2,12.2,12.2s12.2-5.5,12.2-12.2S19.4,0.5,12.7,0.5S0.5,5.9,0.5,12.7L0.5,12.7z"/>
	<g id="XMLID_1343_">
		<circle id="XMLID_1350_" class="st27" cx="12.7" cy="12.7" r="2.8"/>
		<g id="XMLID_1347_">
			<path id="XMLID_1349_" class="st27" d="M11.9,13.6l6.9,4c1-1.7-1.1-2.9-1.1-2.9l-4.9-2.8L11.9,13.6z"/>
			<path id="XMLID_1348_" class="st27" d="M13.4,12.2L6.4,8.1C5.4,9.8,7.5,11,7.5,11l5,2.9L13.4,12.2z"/>
		</g>
		<g id="XMLID_1344_">
			<path id="XMLID_1346_" class="st27" d="M12,12.1l-4,7c1.7,1,2.9-1.1,2.9-1.1l2.8-4.9L12,12.1z"/>
			<path id="XMLID_1345_" class="st27" d="M13.4,13.7l4-7c-1.7-1-2.9,1.1-2.9,1.1l-2.8,4.9L13.4,13.7z"/>
		</g>
	</g>
	<g id="XMLID_1331_">
		<path id="XMLID_1340_" class="st27" d="M38.6,48.7c0-5.6,4.6-10.2,10.2-10.2s10.2,4.6,10.2,10.2s-4.6,10.2-10.2,10.2
			S38.6,54.4,38.6,48.7 M36.6,48.7c0,6.7,5.5,12.2,12.2,12.2s12.2-5.5,12.2-12.2s-5.5-12.2-12.2-12.2S36.6,42,36.6,48.7L36.6,48.7z"
			/>
		<g id="XMLID_1332_">
			<circle id="XMLID_1339_" class="st27" cx="48.6" cy="48.8" r="2.8"/>
			<g id="XMLID_1336_">
				<path id="XMLID_1338_" class="st27" d="M49.3,49.8l5.2-6.1c-1.5-1.3-3.1,0.6-3.1,0.6l-3.6,4.3L49.3,49.8z"/>
				<path id="XMLID_1337_" class="st27" d="M48.2,48L43,54.2c1.5,1.3,3.1-0.6,3.1-0.6l3.7-4.4L48.2,48z"/>
			</g>
			<g id="XMLID_1333_">
				<path id="XMLID_1335_" class="st27" d="M47.8,49.4l6.2,5.2c1.3-1.5-0.6-3.1-0.6-3.1l-4.3-3.6L47.8,49.4z"/>
				<path id="XMLID_1334_" class="st27" d="M49.6,48.3l-6.2-5.2c-1.3,1.5,0.6,3.1,0.6,3.1l4.3,3.6L49.6,48.3z"/>
			</g>
		</g>
	</g>
	<g id="XMLID_1319_">
		<path id="XMLID_1328_" class="st27" d="M38.6,12.7c0-5.6,4.6-10.2,10.2-10.2S58.9,7,58.9,12.7s-4.6,10.2-10.2,10.2
			S38.6,18.3,38.6,12.7 M36.6,12.7c0,6.7,5.5,12.2,12.2,12.2s12.2-5.5,12.2-12.2S55.5,0.5,48.7,0.5S36.6,5.9,36.6,12.7L36.6,12.7z"
			/>
		<g id="XMLID_1320_">
			<circle id="XMLID_1327_" class="st27" cx="48.7" cy="12.7" r="2.8"/>
			<g id="XMLID_1324_">
				<path id="XMLID_1326_" class="st27" d="M48.7,13.9l7.8-1.9c-0.5-1.9-2.8-1.4-2.8-1.4l-5.4,1.3L48.7,13.9z"/>
				<path id="XMLID_1325_" class="st27" d="M48.8,11.8l-7.9,1.9c0.5,1.9,2.8,1.4,2.8,1.4l5.6-1.4L48.8,11.8z"/>
			</g>
			<g id="XMLID_1321_">
				<path id="XMLID_1323_" class="st27" d="M47.7,12.7l1.9,7.9c1.9-0.5,1.4-2.8,1.4-2.8l-1.3-5.5L47.7,12.7z"/>
				<path id="XMLID_1322_" class="st27" d="M49.8,12.9l-1.9-7.9c-1.9,0.5-1.4,2.8-1.4,2.8l1.3,5.5L49.8,12.9z"/>
			</g>
		</g>
	</g>
	<rect id="XMLID_1318_" x="22.7" y="22.8" class="st27" width="15.1" height="15.1"/>
	
		<rect id="XMLID_1317_" x="28.4" y="15.6" transform="matrix(-0.7071 -0.7071 0.7071 -0.7071 30.2253 73.2022)" class="st27" width="3.7" height="29.5"/>
	
		<rect id="XMLID_1316_" x="28.4" y="16" transform="matrix(0.7071 -0.7071 0.7071 0.7071 -12.5876 30.2932)" class="st27" width="3.7" height="28.7"/>
</g>
</svg>
