<?xml version="1.0" encoding="utf-8"?>
<!-- Generator: Adobe Illustrator 19.0.1, SVG Export Plug-In . SVG Version: 6.00 Build 0)  -->
<!DOCTYPE svg PUBLIC "-//W3C//DTD SVG 1.1//EN" "http://www.w3.org/Graphics/SVG/1.1/DTD/svg11.dtd">
<svg version="1.1" id="Layer_1" xmlns="http://www.w3.org/2000/svg" xmlns:xlink="http://www.w3.org/1999/xlink" x="0px" y="0px"
	 viewBox="0 0 111.5 97.6" style="enable-background:new 0 0 111.5 97.6;" xml:space="preserve">
<style type="text/css">
	.st0{fill:#FFFFFF;}
	.st1{fill:#003E54;}
	.st2{fill:#2D9EB2;}
	.st3{fill:#00A651;}
	.st4{fill:#2D9EB2;stroke:#FFFFFF;stroke-width:3;stroke-miterlimit:10;}
	.st5{fill:#2D9EB2;stroke:#FFFFFF;stroke-width:2;stroke-miterlimit:10;}
	.st6{clip-path:url(#XMLID_1159_);}
	.st7{fill:#2D9EB2;stroke:#003E54;stroke-width:2;stroke-miterlimit:10;}
	.st8{fill:none;stroke:#000000;stroke-width:8;stroke-linecap:round;stroke-miterlimit:10;}
	.st9{fill:none;stroke:#000000;stroke-width:8;stroke-linecap:round;stroke-linejoin:round;stroke-miterlimit:10;}
	.st10{fill:none;stroke:#000000;stroke-width:11.7833;stroke-linecap:round;stroke-miterlimit:10;}
	.st11{fill:none;stroke:#000000;stroke-width:11.7833;stroke-linecap:round;stroke-linejoin:round;stroke-miterlimit:10;}
	.st12{fill:none;stroke:#2D9EB2;stroke-width:11.7833;stroke-linecap:round;stroke-miterlimit:10;}
	.st13{fill:none;stroke:#2D9EB2;stroke-width:10;stroke-linecap:round;stroke-linejoin:round;stroke-miterlimit:10;}
	.st14{fill:#C7C6C5;}
	.st15{fill:none;stroke:#2D9EB2;stroke-width:12;stroke-linecap:round;stroke-linejoin:round;stroke-miterlimit:10;}
	.st16{fill:none;stroke:#C7C6C5;stroke-width:8;stroke-linecap:round;stroke-linejoin:round;stroke-miterlimit:10;}
	.st17{fill:none;stroke:#2D9EB2;stroke-width:8;stroke-linecap:round;stroke-linejoin:round;stroke-miterlimit:10;}
	.st18{fill:none;stroke:#2D9EB2;stroke-width:4;stroke-miterlimit:10;}
	.st19{fill:#2D9EB2;stroke:#2D9EB2;stroke-width:4;stroke-miterlimit:10;}
	.st20{fill:none;stroke:#2D9EB2;stroke-width:4;stroke-linejoin:round;stroke-miterlimit:10;}
	.st21{fill:#FFFFFF;stroke:#2D9EB2;stroke-width:4;stroke-miterlimit:10;}
	.st22{fill:#2D9EB2;stroke:#2D9EB2;stroke-width:4;stroke-linecap:round;stroke-linejoin:round;stroke-miterlimit:10;}
	.st23{fill:none;stroke:#2D9EB2;stroke-width:4;stroke-linecap:round;stroke-linejoin:round;stroke-miterlimit:10;}
	.st24{fill:none;stroke:#2D9EB2;stroke-width:6;stroke-linejoin:round;stroke-miterlimit:10;}
	.st25{fill:#2D9EB2;stroke:#2D9EB2;stroke-width:6;stroke-linecap:round;stroke-linejoin:round;stroke-miterlimit:10;}
	.st26{fill:none;stroke:#2D9EB2;stroke-width:6;stroke-linecap:round;stroke-linejoin:round;stroke-miterlimit:10;}
</style>
<g id="XMLID_1016_">
	<path id="XMLID_1019_" class="st2" d="M57.4,96.9c-0.5,0.4-1,0.6-1.7,0.6c-0.6,0-1.3-0.3-1.7-0.6L15.5,58.2
		C-3,39.8-4.1,20.7,7.7,8.9c11.7-11.7,30.8-11.7,42.6,0c2.2,2.2,4,4.6,5.4,7.2c1.4-2.6,3.2-5,5.4-7.2C72.9-3,92-3,103.9,8.9
		c11.7,11.7,10.6,30.8-7.9,49.3L57.4,96.9z"/>
</g>
<g id="XMLID_1021_">
	<path id="XMLID_1026_" class="st0" d="M27.6,27.8l6.6,10.5h0V27.8h3.2v15.7h-3.5L27.4,33h0v10.5h-3.2V27.8H27.6z"/>
	<path id="XMLID_1028_" class="st0" d="M40.8,32.4c0.4-1,0.9-1.9,1.5-2.6s1.5-1.3,2.4-1.8c1-0.4,2-0.6,3.2-0.6
		c1.2,0,2.3,0.2,3.3,0.6c1,0.4,1.8,1,2.4,1.8c0.7,0.7,1.2,1.6,1.5,2.6c0.4,1,0.5,2.1,0.5,3.3c0,1.1-0.2,2.2-0.5,3.2
		c-0.4,1-0.9,1.9-1.5,2.6c-0.7,0.7-1.5,1.3-2.4,1.7c-1,0.4-2,0.6-3.3,0.6c-1.2,0-2.3-0.2-3.2-0.6c-1-0.4-1.8-1-2.4-1.7
		s-1.2-1.6-1.5-2.6c-0.4-1-0.5-2.1-0.5-3.2C40.3,34.5,40.5,33.5,40.8,32.4z M44,37.6c0.2,0.6,0.4,1.2,0.7,1.7
		c0.3,0.5,0.8,0.9,1.3,1.2c0.5,0.3,1.2,0.5,2,0.5s1.4-0.2,2-0.5c0.5-0.3,1-0.7,1.3-1.2c0.3-0.5,0.6-1.1,0.7-1.7
		c0.2-0.6,0.2-1.3,0.2-1.9c0-0.7-0.1-1.4-0.2-2c-0.2-0.6-0.4-1.2-0.7-1.7c-0.3-0.5-0.8-0.9-1.3-1.2c-0.5-0.3-1.2-0.5-2-0.5
		s-1.4,0.2-2,0.5c-0.5,0.3-1,0.7-1.3,1.2c-0.3,0.5-0.6,1.1-0.7,1.7c-0.2,0.6-0.2,1.3-0.2,2C43.8,36.4,43.8,37,44,37.6z"/>
	<path id="XMLID_1031_" class="st0" d="M65.4,27.8c1,0,2,0.2,2.8,0.5c0.9,0.3,1.6,0.8,2.3,1.5c0.6,0.6,1.1,1.5,1.5,2.4
		c0.4,1,0.5,2.1,0.5,3.4c0,1.1-0.1,2.2-0.4,3.2c-0.3,1-0.7,1.8-1.3,2.5c-0.6,0.7-1.3,1.3-2.2,1.7s-1.9,0.6-3.1,0.6h-6.8V27.8H65.4z
		 M65.2,40.6c0.5,0,1-0.1,1.5-0.2c0.5-0.2,0.9-0.4,1.3-0.8s0.7-0.9,0.9-1.5c0.2-0.6,0.3-1.3,0.3-2.2c0-0.8-0.1-1.5-0.2-2.1
		c-0.2-0.6-0.4-1.2-0.8-1.6c-0.4-0.5-0.8-0.8-1.4-1c-0.6-0.2-1.3-0.4-2.1-0.4h-2.5v9.9H65.2z"/>
	<path id="XMLID_1034_" class="st0" d="M87.2,27.8v2.9H79v3.4h7.6v2.7H79v3.9h8.5v2.9H75.5V27.8H87.2z"/>
	<path id="XMLID_1036_" class="st0" d="M43.3,64.1v3.4h-3.5v-3.4H43.3z"/>
	<path id="XMLID_1038_" class="st0" d="M55.8,64.2c-0.1,0.6-0.3,1.2-0.7,1.7c-0.4,0.5-0.9,1-1.6,1.3c-0.7,0.4-1.6,0.5-2.8,0.5
		c-0.7,0-1.3-0.1-1.9-0.3c-0.6-0.2-1.2-0.5-1.7-0.9s-0.9-0.9-1.2-1.5c-0.3-0.6-0.4-1.3-0.4-2.2v-1.4h3.1v0.7c0,0.4,0,0.7,0.1,1.1
		s0.2,0.6,0.3,0.8c0.1,0.2,0.3,0.4,0.6,0.5s0.6,0.2,1,0.2c0.5,0,0.8-0.1,1.1-0.2c0.2-0.2,0.4-0.4,0.5-0.6c0.1-0.3,0.2-0.5,0.2-0.8
		c0-0.3,0-0.6,0-0.9V51.8h3.5v10.8C55.9,63.1,55.9,63.6,55.8,64.2z"/>
	<path id="XMLID_1040_" class="st0" d="M62.2,63.6c0.2,0.4,0.4,0.7,0.8,0.9c0.3,0.2,0.7,0.4,1.1,0.5c0.4,0.1,0.9,0.2,1.3,0.2
		c0.3,0,0.6,0,1-0.1c0.4-0.1,0.7-0.1,1-0.3c0.3-0.1,0.6-0.3,0.8-0.6c0.2-0.3,0.3-0.6,0.3-1c0-0.4-0.1-0.8-0.4-1
		c-0.3-0.3-0.6-0.5-1.1-0.7c-0.4-0.2-0.9-0.3-1.5-0.5c-0.6-0.1-1.1-0.3-1.7-0.4c-0.6-0.1-1.2-0.3-1.7-0.5c-0.6-0.2-1.1-0.5-1.5-0.8
		c-0.4-0.3-0.8-0.8-1.1-1.3c-0.3-0.5-0.4-1.1-0.4-1.8c0-0.8,0.2-1.5,0.5-2.1c0.3-0.6,0.8-1.1,1.4-1.5s1.2-0.7,1.9-0.9
		c0.7-0.2,1.4-0.3,2.1-0.3c0.8,0,1.6,0.1,2.4,0.3c0.8,0.2,1.4,0.5,2,0.9c0.6,0.4,1.1,0.9,1.4,1.6c0.3,0.6,0.5,1.4,0.5,2.3h-3.3
		c0-0.5-0.1-0.9-0.3-1.2c-0.2-0.3-0.4-0.5-0.7-0.7c-0.3-0.2-0.6-0.3-1-0.4c-0.4-0.1-0.8-0.1-1.2-0.1c-0.3,0-0.6,0-0.8,0.1
		c-0.3,0.1-0.5,0.2-0.8,0.3c-0.2,0.1-0.4,0.3-0.6,0.5c-0.1,0.2-0.2,0.5-0.2,0.8c0,0.3,0.1,0.6,0.2,0.7c0.1,0.2,0.3,0.4,0.7,0.5
		c0.3,0.2,0.8,0.3,1.4,0.5c0.6,0.2,1.4,0.4,2.4,0.6c0.3,0.1,0.7,0.2,1.2,0.3c0.5,0.2,1,0.4,1.6,0.7c0.5,0.3,1,0.8,1.3,1.4
		c0.4,0.6,0.6,1.3,0.6,2.2c0,0.7-0.1,1.4-0.4,2c-0.3,0.6-0.7,1.1-1.2,1.6s-1.2,0.8-2,1s-1.8,0.4-2.8,0.4c-0.9,0-1.7-0.1-2.5-0.3
		c-0.8-0.2-1.5-0.5-2.2-1c-0.6-0.5-1.1-1-1.5-1.7c-0.4-0.7-0.5-1.5-0.5-2.5h3.3C61.9,62.8,62,63.3,62.2,63.6z"/>
</g>
</svg>
