<?xml version="1.0" encoding="utf-8"?>
<!-- Generator: Adobe Illustrator 19.0.1, SVG Export Plug-In . SVG Version: 6.00 Build 0)  -->
<!DOCTYPE svg PUBLIC "-//W3C//DTD SVG 1.1//EN" "http://www.w3.org/Graphics/SVG/1.1/DTD/svg11.dtd">
<svg version="1.1" id="Layer_1" xmlns="http://www.w3.org/2000/svg" xmlns:xlink="http://www.w3.org/1999/xlink" x="0px" y="0px"
	 viewBox="0 0 262.5 144.5" style="enable-background:new 0 0 262.5 144.5;" xml:space="preserve">
<style type="text/css">
	.st0{fill:#FFFFFF;}
	.st1{fill:#003E54;}
	.st2{fill:#2D9EB2;}
	.st3{fill:#00A651;}
	.st4{fill:#2D9EB2;stroke:#FFFFFF;stroke-width:3;stroke-miterlimit:10;}
	.st5{fill:#2D9EB2;stroke:#FFFFFF;stroke-width:2;stroke-miterlimit:10;}
	.st6{clip-path:url(#XMLID_804_);}
	.st7{fill:#2D9EB2;stroke:#003E54;stroke-width:2;stroke-miterlimit:10;}
	.st8{fill:none;stroke:#000000;stroke-width:8;stroke-linecap:round;stroke-miterlimit:10;}
	.st9{fill:none;stroke:#000000;stroke-width:8;stroke-linecap:round;stroke-linejoin:round;stroke-miterlimit:10;}
	.st10{fill:none;stroke:#000000;stroke-width:11.7833;stroke-linecap:round;stroke-miterlimit:10;}
	.st11{fill:none;stroke:#000000;stroke-width:11.7833;stroke-linecap:round;stroke-linejoin:round;stroke-miterlimit:10;}
	.st12{fill:none;stroke:#2D9EB2;stroke-width:11.7833;stroke-linecap:round;stroke-miterlimit:10;}
	.st13{fill:none;stroke:#2D9EB2;stroke-width:10;stroke-linecap:round;stroke-linejoin:round;stroke-miterlimit:10;}
	.st14{fill:#C7C6C5;}
	.st15{fill:none;stroke:#2D9EB2;stroke-width:12;stroke-linecap:round;stroke-linejoin:round;stroke-miterlimit:10;}
	.st16{fill:none;stroke:#C7C6C5;stroke-width:8;stroke-linecap:round;stroke-linejoin:round;stroke-miterlimit:10;}
	.st17{fill:none;stroke:#2D9EB2;stroke-width:8;stroke-linecap:round;stroke-linejoin:round;stroke-miterlimit:10;}
	.st18{fill:none;stroke:#2D9EB2;stroke-width:4;stroke-miterlimit:10;}
	.st19{fill:#2D9EB2;stroke:#2D9EB2;stroke-width:4;stroke-miterlimit:10;}
	.st20{fill:none;stroke:#2D9EB2;stroke-width:4;stroke-linejoin:round;stroke-miterlimit:10;}
	.st21{fill:#FFFFFF;stroke:#2D9EB2;stroke-width:4;stroke-miterlimit:10;}
	.st22{fill:#2D9EB2;stroke:#2D9EB2;stroke-width:4;stroke-linecap:round;stroke-linejoin:round;stroke-miterlimit:10;}
	.st23{fill:none;stroke:#2D9EB2;stroke-width:4;stroke-linecap:round;stroke-linejoin:round;stroke-miterlimit:10;}
</style>
<path id="XMLID_258_" class="st2" d="M93.1,56.2L68.5,53c-0.5-0.1-1.6-0.8-1.9-1.2L52.5,30.1c-1.5-2.3-3.9-3.9-6.5-4.3
	c-2.7-0.4-5.4,0.3-7.6,2c-0.4,0.4-10.8,8.9-18.6,30.8c-7.4,20.7-7.3,28.8-7.2,30.2c0.4,5.4,4.9,9.6,10.3,9.6c0,0,0,0,0,0l33.8,0
	c0.1,0.1,0.3,0.2,0.5,0.3L75.9,139c1,2.2,3.2,3.5,5.4,3.5c0.8,0,1.7-0.2,2.5-0.6c3-1.4,4.3-5,2.9-8L67.9,93.6
	c-1.9-4.1-6.6-7.1-11.1-7.1l-20.6,0c0.6-4.9,2.1-12.9,6-23.8c1.9-5.4,4.4-10.5,7.4-15.2l7.1,10.9c2.2,3.4,6.5,6,10.5,6.5l24.6,3.2
	c3.3,0.4,6.3-1.9,6.7-5.2C98.7,59.6,96.3,56.6,93.1,56.2z"/>
<g id="XMLID_245_">
	<circle id="XMLID_253_" class="st2" cx="62.7" cy="13.7" r="13.7"/>
</g>
<path id="XMLID_202_" class="st14" d="M53,102.3c0-2.2-1.8-4-4-4H8V56.1c0-2.2-1.8-4-4-4s-4,1.8-4,4v46.3c0,2.2,1.8,4,4,4h7.1
	l-8.9,33.1c-0.6,2.1,0.7,4.3,2.8,4.9c0.3,0.1,0.7,0.1,1,0.1c1.8,0,3.4-1.2,3.9-3l9.5-35.2h13.3l9.5,35.2c0.5,1.8,2.1,3,3.9,3
	c0.3,0,0.7,0,1-0.1c2.1-0.6,3.4-2.8,2.8-4.9l-8.9-33.1H49C51.2,106.3,53,104.5,53,102.3z"/>
<path id="XMLID_201_" class="st2" d="M242.7,58.7c-7.9-22-18.2-30.5-18.6-30.8c-2.1-1.7-4.9-2.5-7.6-2c-2.7,0.4-5,2-6.5,4.3
	l-14.1,21.8c-0.3,0.4-1.4,1.1-1.9,1.2l-24.4,3.1c-3.3,0.4-5.6,3.4-5.2,6.7c0.4,3.3,3.4,5.6,6.7,5.2l24.4-3.1c4-0.5,8.3-3.2,10.4-6.5
	l7.1-10.9c3,4.7,5.5,9.8,7.4,15.2c3.9,10.9,5.4,18.9,6,23.8l-20.6,0c-4.5,0-9.2,3-11.1,7.1l-18.8,40.4c-1.4,3-0.1,6.6,2.9,8
	c0.8,0.4,1.7,0.6,2.5,0.6c2.3,0,4.4-1.3,5.4-3.5l18.8-40.2c0.1-0.1,0.3-0.2,0.5-0.3l33.8,0c0,0,0,0,0,0c5.4,0,9.9-4.2,10.3-9.6
	C250,87.5,250.1,79.4,242.7,58.7z"/>
<g id="XMLID_257_">
	<circle id="XMLID_242_" class="st2" cx="199.8" cy="13.7" r="13.7"/>
</g>
<path id="XMLID_246_" class="st14" d="M201.3,76H61.7c-2.2,0-4,1.8-4,4s1.8,4,4,4H98H165h36.3c2.2,0,4-1.8,4-4S203.5,76,201.3,76z"
	/>
<path id="XMLID_724_" class="st2" d="M181.5,76c1.8-0.4,3.2-2,3.2-3.9c0-2.2-1.8-4-4-4H153l-9.2-30.8c-0.6-2.1-2.9-3.3-5-2.7
	c-2.1,0.6-3.3,2.9-2.7,5l10,33.7c0.4,1.4,1.6,2.5,3.1,2.8h-35.9c1.4-0.3,2.6-1.3,3.1-2.8l10-33.7c0.6-2.1-0.6-4.3-2.7-5
	c-2.1-0.6-4.3,0.6-5,2.7L109.5,68H81.8c-2.2,0-4,1.8-4,4c0,1.9,1.4,3.5,3.2,3.9H181.5z"/>
<path id="XMLID_198_" class="st14" d="M258.5,52.1c-2.2,0-4,1.8-4,4v42.3h-41c-2.2,0-4,1.8-4,4s1.8,4,4,4h8.1l-8.9,33.1
	c-0.6,2.1,0.7,4.3,2.8,4.9c0.3,0.1,0.7,0.1,1,0.1c1.8,0,3.4-1.2,3.9-3l9.5-35.2h13.3l9.5,35.2c0.5,1.8,2.1,3,3.9,3
	c0.3,0,0.7,0,1-0.1c2.1-0.6,3.4-2.8,2.8-4.9l-8.9-33.1h7.1c2.2,0,4-1.8,4-4V56.1C262.5,53.9,260.7,52.1,258.5,52.1z"/>
</svg>
