<?xml version="1.0" encoding="utf-8"?>
<!-- Generator: Adobe Illustrator 19.0.1, SVG Export Plug-In . SVG Version: 6.00 Build 0)  -->
<!DOCTYPE svg PUBLIC "-//W3C//DTD SVG 1.1//EN" "http://www.w3.org/Graphics/SVG/1.1/DTD/svg11.dtd">
<svg version="1.1" id="Layer_1" xmlns="http://www.w3.org/2000/svg" xmlns:xlink="http://www.w3.org/1999/xlink" x="0px" y="0px"
	 viewBox="0 0 155.6 133.5" style="enable-background:new 0 0 155.6 133.5;" xml:space="preserve">
<style type="text/css">
	.st0{fill:#FFFFFF;}
	.st1{fill:#003E54;}
	.st2{fill:#2D9EB2;}
	.st3{fill:#00A651;}
	.st4{fill:#2D9EB2;stroke:#FFFFFF;stroke-width:3;stroke-miterlimit:10;}
	.st5{fill:#2D9EB2;stroke:#FFFFFF;stroke-width:2;stroke-miterlimit:10;}
	.st6{clip-path:url(#XMLID_1099_);}
	.st7{fill:#2D9EB2;stroke:#003E54;stroke-width:2;stroke-miterlimit:10;}
	.st8{fill:none;stroke:#000000;stroke-width:8;stroke-linecap:round;stroke-miterlimit:10;}
	.st9{fill:none;stroke:#000000;stroke-width:8;stroke-linecap:round;stroke-linejoin:round;stroke-miterlimit:10;}
	.st10{fill:none;stroke:#000000;stroke-width:11.7833;stroke-linecap:round;stroke-miterlimit:10;}
	.st11{fill:none;stroke:#000000;stroke-width:11.7833;stroke-linecap:round;stroke-linejoin:round;stroke-miterlimit:10;}
	.st12{fill:none;stroke:#2D9EB2;stroke-width:11.7833;stroke-linecap:round;stroke-miterlimit:10;}
	.st13{fill:none;stroke:#2D9EB2;stroke-width:10;stroke-linecap:round;stroke-linejoin:round;stroke-miterlimit:10;}
	.st14{fill:#C7C6C5;}
	.st15{fill:none;stroke:#2D9EB2;stroke-width:12;stroke-linecap:round;stroke-linejoin:round;stroke-miterlimit:10;}
	.st16{fill:none;stroke:#C7C6C5;stroke-width:8;stroke-linecap:round;stroke-linejoin:round;stroke-miterlimit:10;}
	.st17{fill:none;stroke:#2D9EB2;stroke-width:8;stroke-linecap:round;stroke-linejoin:round;stroke-miterlimit:10;}
	.st18{fill:none;stroke:#2D9EB2;stroke-width:4;stroke-miterlimit:10;}
	.st19{fill:#2D9EB2;stroke:#2D9EB2;stroke-width:4;stroke-miterlimit:10;}
	.st20{fill:none;stroke:#2D9EB2;stroke-width:4;stroke-linejoin:round;stroke-miterlimit:10;}
	.st21{fill:#FFFFFF;stroke:#2D9EB2;stroke-width:4;stroke-miterlimit:10;}
	.st22{fill:#2D9EB2;stroke:#2D9EB2;stroke-width:4;stroke-linecap:round;stroke-linejoin:round;stroke-miterlimit:10;}
	.st23{fill:none;stroke:#2D9EB2;stroke-width:4;stroke-linecap:round;stroke-linejoin:round;stroke-miterlimit:10;}
	.st24{fill:none;stroke:#2D9EB2;stroke-width:6;stroke-linejoin:round;stroke-miterlimit:10;}
	.st25{fill:#2D9EB2;stroke:#2D9EB2;stroke-width:6;stroke-linecap:round;stroke-linejoin:round;stroke-miterlimit:10;}
	.st26{fill:none;stroke:#2D9EB2;stroke-width:6;stroke-linecap:round;stroke-linejoin:round;stroke-miterlimit:10;}
	.st27{fill:#2D9EB2;stroke:#2D9EB2;stroke-width:0.9467;stroke-miterlimit:10;}
	.st28{fill:none;stroke:#2D9EB2;stroke-width:2;stroke-miterlimit:10;}
	.st29{fill:none;stroke:#2D9EB2;stroke-miterlimit:10;}
</style>
<path id="XMLID_978_" class="st2" d="M47.5,133.5c-10.3,0-17.6-2.4-22.1-7.2c-4.5-4.8-6.7-11.8-6.7-21v-9.9c0-6.6-1.4-11.7-4.1-15.4
	c-2.8-3.7-6.7-5.6-11.9-5.6H0V59h2.7c5.2,0,9.1-1.8,11.9-5.4c2.8-3.6,4.1-8.8,4.1-15.6v-9.7c0-9.2,2.2-16.2,6.6-21
	C29.8,2.4,37.2,0,47.5,0h4.9v14.4h-2.9c-5.4,0-9.2,1.1-11.2,3.3c-2,2.2-3,6.1-3,11.5v11.6c0,6.4-1.5,11.7-4.5,16.1
	c-3,4.4-7.1,7.7-12.2,9.9c5,1.8,9,5,12.1,9.5c3,4.6,4.6,10,4.6,16.3v11.5c0,5.4,1,9.3,3,11.5c2,2.2,5.7,3.3,11.2,3.3h2.9v14.4H47.5z
	"/>
<path id="XMLID_982_" class="st2" d="M103.2,133.5V119h2.9c5.4,0,9.2-1.1,11.2-3.3c2-2.2,3-6.1,3-11.5V92.7c0-6.3,1.5-11.8,4.6-16.3
	c3-4.6,7.1-7.7,12.2-9.5c-5.2-2.2-9.2-5.5-12.2-9.9c-3-4.4-4.5-9.8-4.5-16.1V29.3c0-5.4-1-9.3-3-11.5c-2-2.2-5.7-3.3-11.2-3.3h-2.9
	V0h4.9c10.4,0,17.8,2.4,22.2,7.3c4.4,4.9,6.7,11.9,6.7,21V38c0,6.8,1.4,12,4.1,15.6c2.8,3.6,6.7,5.4,11.8,5.4h2.7v15.4h-2.7
	c-5.1,0-9,1.9-11.8,5.6c-2.8,3.7-4.1,8.9-4.1,15.4v9.9c0,9.2-2.2,16.2-6.7,21c-4.5,4.8-11.9,7.2-22.1,7.2H103.2z"/>
</svg>
