<?xml version="1.0" encoding="utf-8"?>
<!-- Generator: Adobe Illustrator 19.0.1, SVG Export Plug-In . SVG Version: 6.00 Build 0)  -->
<!DOCTYPE svg PUBLIC "-//W3C//DTD SVG 1.1//EN" "http://www.w3.org/Graphics/SVG/1.1/DTD/svg11.dtd">
<svg version="1.1" id="Layer_1" xmlns="http://www.w3.org/2000/svg" xmlns:xlink="http://www.w3.org/1999/xlink" x="0px" y="0px"
	 viewBox="0 0 71.8 72" style="enable-background:new 0 0 71.8 72;" xml:space="preserve">
<style type="text/css">
	.st0{fill:#FFFFFF;}
	.st1{fill:#003E54;}
	.st2{fill:#2D9EB2;}
	.st3{fill:#00A651;}
	.st4{fill:#2D9EB2;stroke:#FFFFFF;stroke-width:3;stroke-miterlimit:10;}
	.st5{fill:#2D9EB2;stroke:#FFFFFF;stroke-width:2;stroke-miterlimit:10;}
	.st6{clip-path:url(#XMLID_1017_);}
	.st7{fill:#2D9EB2;stroke:#003E54;stroke-width:2;stroke-miterlimit:10;}
	.st8{fill:none;stroke:#000000;stroke-width:8;stroke-linecap:round;stroke-miterlimit:10;}
	.st9{fill:none;stroke:#000000;stroke-width:8;stroke-linecap:round;stroke-linejoin:round;stroke-miterlimit:10;}
	.st10{fill:none;stroke:#000000;stroke-width:11.7833;stroke-linecap:round;stroke-miterlimit:10;}
	.st11{fill:none;stroke:#000000;stroke-width:11.7833;stroke-linecap:round;stroke-linejoin:round;stroke-miterlimit:10;}
	.st12{fill:none;stroke:#2D9EB2;stroke-width:11.7833;stroke-linecap:round;stroke-miterlimit:10;}
	.st13{fill:none;stroke:#2D9EB2;stroke-width:10;stroke-linecap:round;stroke-linejoin:round;stroke-miterlimit:10;}
	.st14{fill:#C7C6C5;}
	.st15{fill:none;stroke:#2D9EB2;stroke-width:12;stroke-linecap:round;stroke-linejoin:round;stroke-miterlimit:10;}
	.st16{fill:none;stroke:#C7C6C5;stroke-width:8;stroke-linecap:round;stroke-linejoin:round;stroke-miterlimit:10;}
	.st17{fill:none;stroke:#2D9EB2;stroke-width:8;stroke-linecap:round;stroke-linejoin:round;stroke-miterlimit:10;}
	.st18{fill:none;stroke:#2D9EB2;stroke-width:4;stroke-miterlimit:10;}
	.st19{fill:#2D9EB2;stroke:#2D9EB2;stroke-width:4;stroke-miterlimit:10;}
	.st20{fill:none;stroke:#2D9EB2;stroke-width:4;stroke-linejoin:round;stroke-miterlimit:10;}
	.st21{fill:#FFFFFF;stroke:#2D9EB2;stroke-width:4;stroke-miterlimit:10;}
	.st22{fill:#2D9EB2;stroke:#2D9EB2;stroke-width:4;stroke-linecap:round;stroke-linejoin:round;stroke-miterlimit:10;}
	.st23{fill:none;stroke:#2D9EB2;stroke-width:4;stroke-linecap:round;stroke-linejoin:round;stroke-miterlimit:10;}
	.st24{fill:none;stroke:#2D9EB2;stroke-width:6;stroke-linejoin:round;stroke-miterlimit:10;}
	.st25{fill:#2D9EB2;stroke:#2D9EB2;stroke-width:6;stroke-linecap:round;stroke-linejoin:round;stroke-miterlimit:10;}
	.st26{fill:none;stroke:#2D9EB2;stroke-width:6;stroke-linecap:round;stroke-linejoin:round;stroke-miterlimit:10;}
</style>
<g id="XMLID_934_">
	<path id="XMLID_950_" class="st2" d="M32.3,61.1c-15.9,0-28.8-12.9-28.8-28.8c0-15.9,12.9-28.8,28.8-28.8
		c15.9,0,28.8,12.9,28.8,28.8c0,2.3-0.3,4.6-0.8,6.7l3.4,0.8c0.6-2.4,0.9-4.9,0.9-7.5C64.6,14.5,50.2,0,32.3,0C14.5,0,0,14.5,0,32.3
		c0,17.8,14.5,32.3,32.3,32.3c2.2,0,4.4-0.2,6.5-0.7l-0.7-3.4C36.2,60.9,34.3,61.1,32.3,61.1z"/>
	<path id="XMLID_940_" class="st2" d="M32.3,5.7C17.6,5.7,5.7,17.6,5.7,32.3c0,14.7,11.9,26.6,26.6,26.6c1.8,0,3.6-0.2,5.3-0.5
		l-5.5-26.1l3.6,0.9c-0.4-0.5-0.7-1.1-0.7-1.8c0-1.5,1.2-2.7,2.7-2.7c1.5,0,2.7,1.2,2.7,2.7c0,1.1-0.7,2.1-1.7,2.5l19.3,4.6
		c0.5-2,0.7-4.1,0.7-6.2C58.9,17.6,47,5.7,32.3,5.7z M16.2,19.3c2.1,0,3.9,1.7,3.9,3.9c0,2.1-1.7,3.9-3.9,3.9
		c-2.1,0-3.9-1.7-3.9-3.9C12.3,21,14.1,19.3,16.2,19.3z M15.9,44.3c-2.7,0-4.9-2.2-4.9-4.9c0-2.7,2.2-4.9,4.9-4.9
		c2.7,0,4.9,2.2,4.9,4.9C20.8,42.1,18.6,44.3,15.9,44.3z M28.1,23.1c1.8,0,3.3,1.5,3.3,3.3c0,1.8-1.5,3.3-3.3,3.3s-3.3-1.5-3.3-3.3
		C24.8,24.6,26.3,23.1,28.1,23.1z M24.8,39c0-1.8,1.5-3.3,3.3-3.3c1.8,0,3.3,1.5,3.3,3.3c0,1.8-1.5,3.3-3.3,3.3
		C26.3,42.3,24.8,40.8,24.8,39z M35,51.4c0,2-1.7,3.7-3.7,3.7s-3.7-1.7-3.7-3.7c0-2,1.7-3.7,3.7-3.7S35,49.4,35,51.4z M32.3,19.4
		c-2.6,0-4.6-2.1-4.6-4.6c0-2.6,2.1-4.6,4.6-4.6c2.6,0,4.6,2.1,4.6,4.6C36.9,17.3,34.9,19.4,32.3,19.4z M40.6,17.9
		c0-1.8,1.5-3.3,3.3-3.3c1.8,0,3.3,1.5,3.3,3.3c0,1.8-1.5,3.3-3.3,3.3C42,21.2,40.6,19.7,40.6,17.9z M49.6,33.8
		c-2.5,0-4.4-2-4.4-4.5c0-2.5,2-4.4,4.4-4.4c2.5,0,4.4,2,4.4,4.4C54.1,31.8,52.1,33.8,49.6,33.8z"/>
	<path id="XMLID_939_" class="st2" d="M68.4,47c-2.6,10.8-11.3,19.3-22.3,21.6l0.7,3.4c12.3-2.5,22-12,24.9-24.2L68.4,47z"/>
	<path id="XMLID_935_" class="st2" d="M66.3,46.5l-19.2-4.6c-0.3,0.2-0.7,0.2-1.1,0.2c-0.8,0-1.6-0.4-2.1-1l-3.6-0.9l5.5,26.1
		C55.9,64.4,63.9,56.5,66.3,46.5z M58.6,45.2c1.5,0,2.7,1.2,2.7,2.7c0,1.5-1.2,2.7-2.7,2.7c-1.5,0-2.7-1.2-2.7-2.7
		C55.9,46.4,57.1,45.2,58.6,45.2z M48.2,55.6c-2.6,0-4.6-2.1-4.6-4.6c0-2.6,2.1-4.6,4.6-4.6c2.6,0,4.6,2.1,4.6,4.6
		C52.8,53.5,50.7,55.6,48.2,55.6z"/>
</g>
</svg>
