<?xml version="1.0" encoding="utf-8"?>
<!-- Generator: Adobe Illustrator 19.0.1, SVG Export Plug-In . SVG Version: 6.00 Build 0)  -->
<!DOCTYPE svg PUBLIC "-//W3C//DTD SVG 1.1//EN" "http://www.w3.org/Graphics/SVG/1.1/DTD/svg11.dtd">
<svg version="1.1" id="Layer_1" xmlns="http://www.w3.org/2000/svg" xmlns:xlink="http://www.w3.org/1999/xlink" x="0px" y="0px"
	 viewBox="0 0 201.5 77.3" style="enable-background:new 0 0 201.5 77.3;" xml:space="preserve">
<style type="text/css">
	.st0{fill:#FFFFFF;}
	.st1{fill:#003E54;}
	.st2{fill:#2D9EB2;}
	.st3{fill:#00A651;}
	.st4{fill:#2D9EB2;stroke:#FFFFFF;stroke-width:3;stroke-miterlimit:10;}
	.st5{fill:#2D9EB2;stroke:#FFFFFF;stroke-width:2;stroke-miterlimit:10;}
	.st6{clip-path:url(#XMLID_1198_);}
	.st7{fill:#2D9EB2;stroke:#003E54;stroke-width:2;stroke-miterlimit:10;}
	.st8{fill:none;stroke:#000000;stroke-width:8;stroke-linecap:round;stroke-miterlimit:10;}
	.st9{fill:none;stroke:#000000;stroke-width:8;stroke-linecap:round;stroke-linejoin:round;stroke-miterlimit:10;}
	.st10{fill:none;stroke:#000000;stroke-width:11.7833;stroke-linecap:round;stroke-miterlimit:10;}
	.st11{fill:none;stroke:#000000;stroke-width:11.7833;stroke-linecap:round;stroke-linejoin:round;stroke-miterlimit:10;}
	.st12{fill:none;stroke:#2D9EB2;stroke-width:11.7833;stroke-linecap:round;stroke-miterlimit:10;}
	.st13{fill:none;stroke:#2D9EB2;stroke-width:10;stroke-linecap:round;stroke-linejoin:round;stroke-miterlimit:10;}
	.st14{fill:#C7C6C5;}
	.st15{fill:none;stroke:#2D9EB2;stroke-width:12;stroke-linecap:round;stroke-linejoin:round;stroke-miterlimit:10;}
	.st16{fill:none;stroke:#C7C6C5;stroke-width:8;stroke-linecap:round;stroke-linejoin:round;stroke-miterlimit:10;}
	.st17{fill:none;stroke:#2D9EB2;stroke-width:8;stroke-linecap:round;stroke-linejoin:round;stroke-miterlimit:10;}
	.st18{fill:none;stroke:#2D9EB2;stroke-width:4;stroke-miterlimit:10;}
	.st19{fill:#2D9EB2;stroke:#2D9EB2;stroke-width:4;stroke-miterlimit:10;}
	.st20{fill:none;stroke:#2D9EB2;stroke-width:4;stroke-linejoin:round;stroke-miterlimit:10;}
	.st21{fill:#FFFFFF;stroke:#2D9EB2;stroke-width:4;stroke-miterlimit:10;}
	.st22{fill:#2D9EB2;stroke:#2D9EB2;stroke-width:4;stroke-linecap:round;stroke-linejoin:round;stroke-miterlimit:10;}
	.st23{fill:none;stroke:#2D9EB2;stroke-width:4;stroke-linecap:round;stroke-linejoin:round;stroke-miterlimit:10;}
	.st24{fill:none;stroke:#2D9EB2;stroke-width:6;stroke-linejoin:round;stroke-miterlimit:10;}
	.st25{fill:#2D9EB2;stroke:#2D9EB2;stroke-width:6;stroke-linecap:round;stroke-linejoin:round;stroke-miterlimit:10;}
	.st26{fill:none;stroke:#2D9EB2;stroke-width:6;stroke-linecap:round;stroke-linejoin:round;stroke-miterlimit:10;}
</style>
<g id="XMLID_219_">
	<path id="XMLID_220_" class="st2" d="M171.3,20.1c1.1,0,2.5-0.3,3.9-0.9c1.5-0.6,3.1-1.2,4.8-1.8c1.7-0.6,3.5-0.9,5.3-0.9
		c1.6,0,3.2,0.3,4.7,0.8s2.9,1.2,4,2.1s2,1.6,2.9,2.4s1.5,1.5,1.9,2.1l0.6,0.8c-0.2,0.1-0.5,0.3-0.9,0.5s-1,0.8-2,1.7
		c-1,0.9-1.8,1.8-2.5,2.8c-0.7,1-1.4,2.3-2,4c-0.6,1.7-0.9,3.4-0.9,5.2c0,1.6,0.2,3.1,0.6,4.5s0.9,2.6,1.5,3.6s1.3,1.9,2,2.7
		c0.7,0.8,1.5,1.5,2.2,2c0.8,0.5,1.4,0.9,2.1,1.3c0.6,0.4,1.1,0.6,1.5,0.7l0.6,0.2c-0.1,0.3-0.3,0.7-0.5,1.1
		c-0.2,0.5-0.7,1.4-1.4,2.7c-0.7,1.3-1.4,2.6-2.1,3.9s-1.6,2.6-2.8,4.1c-1.1,1.5-2.2,2.8-3.3,3.9c-1.1,1.1-2.3,2-3.6,2.7
		s-2.7,1.1-3.9,1.1c-1.1,0-2.2-0.2-3.2-0.5s-1.8-0.7-2.4-1c-0.6-0.4-1.6-0.7-2.8-1s-2.6-0.5-4.2-0.5c-1.7,0-3.3,0.3-4.8,0.8
		c-1.5,0.5-2.8,1-4.1,1.5s-2.6,0.7-3.8,0.7c-1.7,0-3.5-0.7-5.4-2.1s-3.7-3.3-5.4-5.6c-1.7-2.4-3.3-5-4.7-7.9c-1.4-2.9-2.5-6-3.3-9.4
		c-0.8-3.3-1.2-6.5-1.2-9.5c0-3.1,0.4-5.9,1.3-8.5c0.8-2.6,1.9-4.7,3.3-6.4c1.3-1.7,2.8-3.1,4.5-4.3c1.7-1.2,3.3-2,5-2.5
		c1.6-0.5,3.2-0.8,4.7-0.8c1.4,0,2.8,0.2,4.1,0.6s2.5,0.8,3.4,1.3s1.9,0.9,3.1,1.3S170.1,20.1,171.3,20.1z M169.3,17.3
		c-0.2-1.9-0.1-3.8,0.4-5.6c0.5-1.8,1.3-3.4,2.3-4.7c1-1.3,2.2-2.5,3.6-3.6c1.3-1,2.7-1.8,4.2-2.4c1.4-0.6,2.8-0.9,4.1-1
		c0.4,2.6,0,5.3-1.2,8c-1.2,2.7-3.1,5-5.5,6.8C174.6,16.5,172,17.4,169.3,17.3z"/>
</g>
<g id="XMLID_209_">
	<path id="XMLID_212_" class="st2" d="M9,50.3c0,1.2-0.4,2.3-1.3,3.2s-1.9,1.3-3.2,1.3s-2.3-0.4-3.2-1.3S0,51.6,0,50.3V30.1
		c0-1.2,0.4-2.3,1.3-3.2s1.9-1.3,3.2-1.3s2.3,0.4,3.2,1.3S9,28.8,9,30.1V50.3z M45.6,1.2c0.3-0.4,0.2-0.8-0.2-1
		c-0.4-0.3-0.8-0.2-1,0.2l-4,6.7c-2.7-1.2-5.7-1.8-8.8-1.8s-6.1,0.6-8.8,1.8l-4-6.7c-0.3-0.4-0.6-0.5-1-0.2c-0.4,0.3-0.5,0.6-0.2,1
		l3.9,6.6c-3.3,1.7-5.9,4-7.9,7.1c-2,3-2.9,6.4-2.9,10h42c0-3.6-1-6.9-2.9-10c-2-3-4.6-5.4-7.9-7.1L45.6,1.2z M52.5,57.8
		c0,1.2-0.4,2.3-1.3,3.2c-0.9,0.9-1.9,1.3-3.2,1.3h-4.5v10.5c0,1.2-0.4,2.3-1.3,3.2c-0.9,0.9-1.9,1.3-3.2,1.3s-2.3-0.4-3.2-1.3
		s-1.3-1.9-1.3-3.2V62.3h-6v10.5c0,1.2-0.4,2.3-1.3,3.2s-1.9,1.3-3.2,1.3s-2.3-0.4-3.2-1.3s-1.3-1.9-1.3-3.2V62.3H15
		c-1.2,0-2.3-0.4-3.2-1.3s-1.3-1.9-1.3-3.2V26.3h42V57.8z M20.2,16.7c-0.4-0.4-0.7-1-0.7-1.6c0-0.6,0.2-1.1,0.7-1.6
		c0.4-0.4,1-0.7,1.6-0.7c0.6,0,1.1,0.2,1.6,0.7c0.4,0.4,0.7,1,0.7,1.6c0,0.6-0.2,1.2-0.7,1.6c-0.4,0.4-1,0.7-1.6,0.7
		C21.1,17.3,20.6,17.1,20.2,16.7z M39.7,16.7c-0.4-0.4-0.7-1-0.7-1.6c0-0.6,0.2-1.1,0.7-1.6c0.4-0.4,1-0.7,1.6-0.7
		c0.6,0,1.2,0.2,1.6,0.7c0.4,0.4,0.7,1,0.7,1.6c0,0.6-0.2,1.2-0.7,1.6c-0.4,0.4-1,0.7-1.6,0.7C40.6,17.3,40.1,17.1,39.7,16.7z
		 M63,50.3c0,1.2-0.4,2.3-1.3,3.2s-1.9,1.3-3.2,1.3s-2.3-0.4-3.2-1.3S54,51.6,54,50.3V30.1c0-1.2,0.4-2.3,1.3-3.2s1.9-1.3,3.2-1.3
		s2.3,0.4,3.2,1.3s1.3,1.9,1.3,3.2V50.3z"/>
</g>
<g id="XMLID_211_">
	<path id="XMLID_224_" class="st14" d="M111.9,37.7L85,26.2v-7.3l36.6,16.2v5.2L85,56.5v-7.3L111.9,37.7z"/>
</g>
</svg>
