<?xml version="1.0" encoding="utf-8"?>
<!-- Generator: Adobe Illustrator 19.0.1, SVG Export Plug-In . SVG Version: 6.00 Build 0)  -->
<!DOCTYPE svg PUBLIC "-//W3C//DTD SVG 1.1//EN" "http://www.w3.org/Graphics/SVG/1.1/DTD/svg11.dtd">
<svg version="1.1" id="Layer_1" xmlns="http://www.w3.org/2000/svg" xmlns:xlink="http://www.w3.org/1999/xlink" x="0px" y="0px"
	 viewBox="0 0 195.7 143.4" style="enable-background:new 0 0 195.7 143.4;" xml:space="preserve">
<style type="text/css">
	.st0{fill:#FFFFFF;}
	.st1{fill:#003E54;}
	.st2{fill:#2D9EB2;}
	.st3{fill:#00A651;}
	.st4{fill:#2D9EB2;stroke:#FFFFFF;stroke-width:3;stroke-miterlimit:10;}
	.st5{fill:#2D9EB2;stroke:#FFFFFF;stroke-width:2;stroke-miterlimit:10;}
	.st6{clip-path:url(#XMLID_947_);}
	.st7{fill:#2D9EB2;stroke:#003E54;stroke-width:2;stroke-miterlimit:10;}
	.st8{fill:none;stroke:#000000;stroke-width:8;stroke-linecap:round;stroke-miterlimit:10;}
	.st9{fill:none;stroke:#000000;stroke-width:8;stroke-linecap:round;stroke-linejoin:round;stroke-miterlimit:10;}
	.st10{fill:none;stroke:#000000;stroke-width:11.7833;stroke-linecap:round;stroke-miterlimit:10;}
	.st11{fill:none;stroke:#000000;stroke-width:11.7833;stroke-linecap:round;stroke-linejoin:round;stroke-miterlimit:10;}
	.st12{fill:none;stroke:#2D9EB2;stroke-width:11.7833;stroke-linecap:round;stroke-miterlimit:10;}
	.st13{fill:none;stroke:#2D9EB2;stroke-width:10;stroke-linecap:round;stroke-linejoin:round;stroke-miterlimit:10;}
	.st14{fill:#C7C6C5;}
	.st15{fill:none;stroke:#2D9EB2;stroke-width:12;stroke-linecap:round;stroke-linejoin:round;stroke-miterlimit:10;}
	.st16{fill:none;stroke:#C7C6C5;stroke-width:8;stroke-linecap:round;stroke-linejoin:round;stroke-miterlimit:10;}
	.st17{fill:none;stroke:#2D9EB2;stroke-width:8;stroke-linecap:round;stroke-linejoin:round;stroke-miterlimit:10;}
	.st18{fill:none;stroke:#2D9EB2;stroke-width:4;stroke-miterlimit:10;}
	.st19{fill:#2D9EB2;stroke:#2D9EB2;stroke-width:4;stroke-miterlimit:10;}
	.st20{fill:none;stroke:#2D9EB2;stroke-width:4;stroke-linejoin:round;stroke-miterlimit:10;}
	.st21{fill:#FFFFFF;stroke:#2D9EB2;stroke-width:4;stroke-miterlimit:10;}
	.st22{fill:#2D9EB2;stroke:#2D9EB2;stroke-width:4;stroke-linecap:round;stroke-linejoin:round;stroke-miterlimit:10;}
	.st23{fill:none;stroke:#2D9EB2;stroke-width:4;stroke-linecap:round;stroke-linejoin:round;stroke-miterlimit:10;}
	.st24{fill:none;stroke:#2D9EB2;stroke-width:6;stroke-linejoin:round;stroke-miterlimit:10;}
	.st25{fill:#2D9EB2;stroke:#2D9EB2;stroke-width:6;stroke-linecap:round;stroke-linejoin:round;stroke-miterlimit:10;}
	.st26{fill:none;stroke:#2D9EB2;stroke-width:6;stroke-linecap:round;stroke-linejoin:round;stroke-miterlimit:10;}
</style>
<g id="XMLID_819_">
	<g id="XMLID_832_">
		<path class="st2" d="M72.1,37.6l5.5,0.6l1.3,11.7l0,0l3.6-11.1l5.5,0.6l-1.7,17.1l-3.5-0.4l1.3-13l0,0l-4.3,12.6l-2.8-0.3
			l-1.7-13.3l0,0l-1.3,13l-3.5-0.4L72.1,37.6z"/>
	</g>
	<g id="XMLID_830_">
		<path class="st2" d="M91.3,39.7l10.9,1.8l-0.5,3.5l-7.3-1.2l-0.4,3l6.7,1.1l-0.5,3.4l-6.7-1.1l-0.4,3.2l7.5,1.3l-0.5,3.8L89,56.7
			L91.3,39.7z"/>
	</g>
	<g id="XMLID_828_">
		<path class="st2" d="M105.4,42.6l3.9,0.9l2.9,11.5l0,0l2.1-10.4l3.5,0.8l-3.4,16.8l-3.9-0.9l-2.9-11.6l0,0l-2.1,10.5l-3.5-0.8
			L105.4,42.6z"/>
	</g>
	<g id="XMLID_826_">
		<path class="st2" d="M130.8,52.8l-4.1-1l-2.7,13l-3.6-0.9l2.7-13l-4.1-1l0.8-3.8l11.8,2.9L130.8,52.8z"/>
	</g>
	<g id="XMLID_823_">
		<path class="st2" d="M139.5,51.4c4.3,1.4,5.7,6,4.5,10.7c-1.3,4.8-4.7,7.8-9.1,6.5c-4.3-1.4-5.7-6-4.5-10.7
			C131.7,53,135.2,50,139.5,51.4z M135.9,64.9c2.3,0.7,3.8-1.4,4.5-3.9c0.7-2.4,0.4-5.2-1.9-5.9c-2.3-0.7-3.8,1.4-4.5,3.9
			C133.4,61.4,133.6,64.1,135.9,64.9z"/>
	</g>
	<g id="XMLID_820_">
		<path class="st2" d="M147.7,54.5l7,2.1c2.4,0.7,4.5,2.8,3.6,6.1c-0.5,1.8-1.6,3.3-3.2,3.5l0,0c1.4,0.9,1.3,3,1,4.6
			c-0.1,0.7-0.7,3.2-0.4,3.9l-3.5-1.1c-0.2-0.7,0.2-2.3,0.3-2.8c0.3-1.7,0.5-3.5-1.1-4l-2.7-0.8l-1.6,6l-3.6-1.1L147.7,54.5z
			 M149.4,62.8l3,0.9c1.1,0.3,1.8-0.2,2.2-1.4c0.3-1.2-0.3-2-1.3-2.3l-2.8-0.9L149.4,62.8z"/>
	</g>
</g>
<path id="XMLID_889_" class="st2" d="M183.3,29C163.2,4.1,130.2,3.5,127.1,3.5c0,0-0.1,0-0.1,0c-2.8-0.1-43.7-1.8-60,15
	c-0.1,0.1-0.1,0.2-0.2,0.2C62.7,24,59.1,35,55.9,51.4c-1.8,9.2-2.9,17.6-3.3,21.1c-3.8,1.6-13.8,6-23.7,10.5
	C15.4,89,4.3,94.5,3.5,95.5C0.1,100-1,105.3,1,110.5c2.2,5.7,7.6,9.7,14.1,10.5c0.5,0.1,1,0.1,1.6,0.1c5,0,11.9-2.6,21.1-8
	c5.2-3,9.7-6.1,11.9-7.7c5.6,2.5,11.2,5.8,16.7,10.1c21.9,17.2,38.6,27.8,53.7,27.8c23.3,0,45.8-29.7,50.9-36.7
	c4.7,0.4,8.1,0.5,10.7,0.5c6.3,0,7.4-0.9,8-1.3c2.7-2.1,4.8-16.5,5.3-21.3C196.4,70.9,196.8,45.6,183.3,29z M15.9,115
	c-4.3-0.5-7.8-3.1-9.3-6.8c-1-2.4-0.8-4.9,0.4-7.2c0.6-0.1,1.1-0.2,1.5-0.3c9-2.3,21.3-2.3,34.5,2.1C34,108.8,21.5,115.8,15.9,115z
	 M185.7,101c-2.5,0.3-9.6,0-15.6-0.5c-4-1.3-43.7-14.2-68.9-24.2c-20.3-8-35.3-7-42.3-5.8c1.8-13.6,6.3-39.8,12.5-48
	c14.8-14.9,55-13.1,55.4-13.1c0.1,0,0.1,0,0.2,0c0.3,0,32.8-0.1,51.7,23.2C195.8,53.9,188.4,93.9,185.7,101z"/>
<path id="XMLID_817_" class="st2" d="M127.5,4c0,0,2-4.3,7.4-4c5.5,0.3,6.6,5.5,6.6,5.5L127.5,4z"/>
</svg>
